<?xml version="1.0" encoding="UTF-8" standalone="no"?>
<!DOCTYPE svg PUBLIC "-//W3C//DTD SVG 1.1//EN"
 "http://www.w3.org/Graphics/SVG/1.1/DTD/svg11.dtd">
<!-- Generated by graphviz version 2.40.1 (20161225.0304)
 -->
<!-- Title: EME Pages: 1 -->
<svg width="1333pt" height="309pt"
 viewBox="0.00 0.00 1333.00 309.02" xmlns="http://www.w3.org/2000/svg" xmlns:xlink="http://www.w3.org/1999/xlink">
<g id="graph0" class="graph" transform="scale(1 1) rotate(0) translate(4 305.0244)">
<title>EME</title>
<polygon fill="#ffffff" stroke="transparent" points="-4,4 -4,-305.0244 1329,-305.0244 1329,4 -4,4"/>
<!-- Browser -->
<g id="node1" class="node">
<title>Browser</title>
<polygon fill="none" stroke="#000000" points="114,-121.0244 0,-121.0244 0,-7.0244 114,-7.0244 114,-121.0244"/>
<polyline fill="none" stroke="#000000" points="12,-121.0244 0,-109.0244 "/>
<polyline fill="none" stroke="#000000" points="0,-19.0244 12,-7.0244 "/>
<polyline fill="none" stroke="#000000" points="102,-7.0244 114,-19.0244 "/>
<polyline fill="none" stroke="#000000" points="114,-109.0244 102,-121.0244 "/>
<text text-anchor="middle" x="57" y="-57.8244" font-family="sans" font-size="24.00" fill="#000000">Browser</text>
</g>
<!-- Web Application -->
<g id="node4" class="node">
<title>Web Application</title>
<polygon fill="none" stroke="#000000" points="521,-177.0244 321,-177.0244 321,-181.0244 309,-181.0244 309,-141.0244 521,-141.0244 521,-177.0244"/>
<polyline fill="none" stroke="#000000" points="309,-177.0244 321,-177.0244 "/>
<text text-anchor="middle" x="415" y="-152.8244" font-family="sans" font-size="24.00" fill="#000000">Web Application</text>
</g>
<!-- Browser&#45;&gt;Web Application -->
<g id="edge1" class="edge">
<title>Browser&#45;&gt;Web Application</title>
<path fill="none" stroke="#000000" d="M114.1995,-74.82C161.8605,-84.2717 231.3429,-99.1127 291,-116.0244 312.9524,-122.2475 336.7046,-130.1817 357.4893,-137.5361"/>
<polygon fill="#000000" stroke="#000000" points="356.5276,-140.9091 367.1222,-140.9775 358.8827,-134.3171 356.5276,-140.9091"/>
<text text-anchor="middle" x="211.5" y="-121.2244" font-family="sans" font-size="16.00" fill="#000000">1a: loads</text>
</g>
<!-- Browser&#45;&gt;Web Application -->
<g id="edge5" class="edge">
<title>Browser&#45;&gt;Web Application</title>
<path fill="none" stroke="#000000" d="M110.5001,-121.3192C117.3023,-126.2891 124.5174,-130.6871 132,-134.0244 183.6289,-157.0507 245.7537,-164.4699 298.6276,-165.6415"/>
<polygon fill="#000000" stroke="#000000" points="298.6787,-169.1425 308.73,-165.7926 298.7835,-162.1433 298.6787,-169.1425"/>
<text text-anchor="middle" x="211.5" y="-170.2244" font-family="sans" font-size="16.00" fill="#000000">2c: encrypted event</text>
</g>
<!-- Encrypted Media -->
<g id="node5" class="node">
<title>Encrypted Media</title>
<polygon fill="none" stroke="#000000" points="996.5,-80.0244 777.5,-80.0244 777.5,-56.0244 996.5,-56.0244 996.5,-80.0244"/>
<polyline fill="none" stroke="#000000" points="780.5,-69.5244 783.5,-66.5244 "/>
<polyline fill="none" stroke="#000000" points="780.5,-66.5244 783.5,-69.5244 "/>
<polyline fill="none" stroke="#000000" points="780.5,-59.0244 993.5,-59.0244 "/>
<text text-anchor="middle" x="887" y="-61.8244" font-family="sans" font-size="24.00" fill="#000000">Encrypted Media</text>
</g>
<!-- Browser&#45;&gt;Encrypted Media -->
<g id="edge3" class="edge">
<title>Browser&#45;&gt;Encrypted Media</title>
<path fill="none" stroke="#000000" d="M114.0493,-64.2993C248.1262,-64.9455 585.6234,-66.5719 767.1074,-67.4466"/>
<polygon fill="#000000" stroke="#000000" points="767.2141,-70.947 777.2308,-67.4954 767.2479,-63.9471 767.2141,-70.947"/>
<text text-anchor="middle" x="415" y="-71.2244" font-family="sans" font-size="16.00" fill="#000000">2a: reads metadata</text>
</g>
<!-- MediaKeySession -->
<g id="node2" class="node">
<title>MediaKeySession</title>
<polygon fill="none" stroke="#000000" points="1002,-210.0244 776,-210.0244 772,-206.0244 772,-174.0244 998,-174.0244 1002,-178.0244 1002,-210.0244"/>
<polyline fill="none" stroke="#000000" points="998,-206.0244 772,-206.0244 "/>
<polyline fill="none" stroke="#000000" points="998,-206.0244 998,-174.0244 "/>
<polyline fill="none" stroke="#000000" points="998,-206.0244 1002,-210.0244 "/>
<text text-anchor="middle" x="887" y="-185.8244" font-family="Monospace" font-size="24.00" fill="#000000">MediaKeySession</text>
</g>
<!-- CDM -->
<g id="node3" class="node">
<title>CDM</title>
<polygon fill="none" stroke="#000000" points="1313,-140.0244 1252,-140.0244 1252,-116.0244 1313,-116.0244 1325,-128.0244 1313,-140.0244"/>
<text text-anchor="middle" x="1288.5" y="-121.8244" font-family="sans" font-size="24.00" fill="#000000">CDM</text>
</g>
<!-- MediaKeySession&#45;&gt;CDM -->
<g id="edge12" class="edge">
<title>MediaKeySession&#45;&gt;CDM</title>
<path fill="none" stroke="#000000" d="M948.8023,-174.0117C971.0754,-168.1097 996.5084,-162.0427 1020,-158.0244 1114.1182,-141.9249 1139.5011,-152.7132 1234,-139.0244 1236.6405,-138.6419 1239.3461,-138.2137 1242.0721,-137.7543"/>
<polygon fill="#000000" stroke="#000000" points="1242.7284,-141.1925 1251.9517,-135.979 1241.4903,-134.3028 1242.7284,-141.1925"/>
<text text-anchor="middle" x="1127" y="-163.2244" font-family="sans" font-size="16.00" fill="#000000">7c: provides license key</text>
</g>
<!-- CDM&#45;&gt;Browser -->
<g id="edge14" class="edge">
<title>CDM&#45;&gt;Browser</title>
<path fill="none" stroke="#000000" d="M1279.4143,-109.7611C1270.3195,-93.6355 1254.7084,-71.0284 1234,-60.0244 1142.6411,-11.4779 1105.1163,-49.4047 1002,-41.0244 616.603,-9.7028 512.213,31.3316 132,-39.0244 129.3704,-39.511 126.7066,-40.0683 124.029,-40.6828"/>
<polygon fill="#000000" stroke="#000000" points="123.1509,-37.2946 114.3104,-43.1337 124.8626,-44.0821 123.1509,-37.2946"/>
<text text-anchor="middle" x="646.5" y="-23.2244" font-family="sans" font-size="16.00" fill="#000000">8b: sends decrypted media</text>
</g>
<!-- CDM&#45;&gt;MediaKeySession -->
<g id="edge8" class="edge">
<title>CDM&#45;&gt;MediaKeySession</title>
<path fill="none" stroke="#000000" d="M1275.2536,-146.2636C1265.3829,-158.2503 1250.7554,-172.9748 1234,-180.0244 1164.7681,-209.1523 1080.7238,-212.7681 1012.6881,-208.8063"/>
<polygon fill="#000000" stroke="#000000" points="1012.5456,-205.2899 1002.341,-208.1387 1012.0949,-212.2754 1012.5456,-205.2899"/>
<text text-anchor="middle" x="1127" y="-215.2244" font-family="sans" font-size="16.00" fill="#000000">5: message event</text>
</g>
<!-- Web Application&#45;&gt;MediaKeySession -->
<g id="edge6" class="edge">
<title>Web Application&#45;&gt;MediaKeySession</title>
<path fill="none" stroke="#000000" d="M521.0998,-154.1878C588.1107,-152.5588 676.3873,-153.0318 754,-162.0244 772.252,-164.1391 791.6638,-167.7297 809.8537,-171.7067"/>
<polygon fill="#000000" stroke="#000000" points="809.294,-175.1682 819.8184,-173.949 810.8308,-168.339 809.294,-175.1682"/>
<text text-anchor="middle" x="646.5" y="-167.2244" font-family="sans" font-size="16.00" fill="#000000">3: creates</text>
</g>
<!-- Web Application&#45;&gt;MediaKeySession -->
<g id="edge11" class="edge">
<title>Web Application&#45;&gt;MediaKeySession</title>
<path fill="none" stroke="#000000" d="M514.3319,-177.0447C522.6582,-178.1904 530.9626,-179.2089 539,-180.0244 612.6541,-187.4975 695.4764,-190.5668 761.8403,-191.7355"/>
<polygon fill="#000000" stroke="#000000" points="761.871,-195.2364 771.927,-191.9008 761.9858,-188.2373 761.871,-195.2364"/>
<text text-anchor="middle" x="646.5" y="-196.2244" font-family="sans" font-size="16.00" fill="#000000">7b: updates key</text>
</g>
<!-- Web Application&#45;&gt;CDM -->
<g id="edge7" class="edge">
<title>Web Application&#45;&gt;CDM</title>
<path fill="none" stroke="#000000" d="M521.175,-150.0935C527.2033,-149.7012 533.1772,-149.3405 539,-149.0244 804.5944,-134.6041 1123.7017,-129.8249 1241.6904,-128.4831"/>
<polygon fill="#000000" stroke="#000000" points="1241.8563,-131.9816 1251.8168,-128.3709 1241.7786,-124.982 1241.8563,-131.9816"/>
<text text-anchor="middle" x="887" y="-143.2244" font-family="sans" font-size="16.00" fill="#000000">4: sends media metadata</text>
</g>
<!-- Web Application&#45;&gt;Encrypted Media -->
<g id="edge2" class="edge">
<title>Web Application&#45;&gt;Encrypted Media</title>
<path fill="none" stroke="#000000" d="M442.7595,-140.9234C467.0737,-126.0703 503.91,-105.9319 539,-96.0244 580.6192,-84.2733 683.9689,-76.9228 767.2978,-72.7181"/>
<polygon fill="#000000" stroke="#000000" points="767.5402,-76.2105 777.3551,-72.2208 767.1944,-69.219 767.5402,-76.2105"/>
<text text-anchor="middle" x="646.5" y="-101.2244" font-family="sans" font-size="16.00" fill="#000000">1b: contains</text>
</g>
<!-- License Server -->
<g id="node6" class="node">
<title>License Server</title>
<path fill="none" stroke="#000000" d="M984,-271.0476C984,-273.3802 940.523,-275.275 887,-275.275 833.477,-275.275 790,-273.3802 790,-271.0476 790,-271.0476 790,-233.0011 790,-233.0011 790,-230.6685 833.477,-228.7737 887,-228.7737 940.523,-228.7737 984,-230.6685 984,-233.0011 984,-233.0011 984,-271.0476 984,-271.0476"/>
<path fill="none" stroke="#000000" d="M984,-271.0476C984,-268.715 940.523,-266.8202 887,-266.8202 833.477,-266.8202 790,-268.715 790,-271.0476"/>
<text text-anchor="middle" x="887" y="-245.8244" font-family="sans" font-size="24.00" fill="#000000">License Server</text>
</g>
<!-- Web Application&#45;&gt;License Server -->
<g id="edge9" class="edge">
<title>Web Application&#45;&gt;License Server</title>
<path fill="none" stroke="#000000" d="M449.0066,-177.1409C473.3779,-189.292 507.3553,-204.5669 539,-213.0244 582.9966,-224.7831 694.684,-236.1359 779.7647,-243.5306"/>
<polygon fill="#000000" stroke="#000000" points="779.4762,-247.0187 789.7398,-244.3902 780.0772,-240.0445 779.4762,-247.0187"/>
<text text-anchor="middle" x="646.5" y="-245.2244" font-family="sans" font-size="16.00" fill="#000000">6: requests key</text>
</g>
<!-- Encrypted Media&#45;&gt;Browser -->
<g id="edge4" class="edge">
<title>Encrypted Media&#45;&gt;Browser</title>
<path fill="none" stroke="#000000" d="M777.2734,-57.7412C661.0137,-48.1427 472.0757,-36.2413 309,-43.0244 246.3166,-45.6317 175.0896,-51.8719 124.3903,-56.8766"/>
<polygon fill="#000000" stroke="#000000" points="123.8167,-53.4164 114.2135,-57.8918 124.5116,-60.3818 123.8167,-53.4164"/>
<text text-anchor="middle" x="415" y="-48.2244" font-family="sans" font-size="16.00" fill="#000000">2b: is encrypted</text>
</g>
<!-- Encrypted Media&#45;&gt;CDM -->
<g id="edge13" class="edge">
<title>Encrypted Media&#45;&gt;CDM</title>
<path fill="none" stroke="#000000" d="M996.8595,-64.4447C1066.3374,-65.1932 1157.1996,-71.7851 1234,-96.0244 1240.7489,-98.1544 1247.5567,-101.2425 1253.9653,-104.6706"/>
<polygon fill="#000000" stroke="#000000" points="1252.6002,-107.9226 1263.0155,-109.8646 1256.0845,-101.8514 1252.6002,-107.9226"/>
<text text-anchor="middle" x="1127" y="-101.2244" font-family="sans" font-size="16.00" fill="#000000">8a: reads encrypted media</text>
</g>
<!-- License Server&#45;&gt;Web Application -->
<g id="edge10" class="edge">
<title>License Server&#45;&gt;Web Application</title>
<path fill="none" stroke="#000000" d="M790.2107,-273.4309C718.6589,-284.8679 620.0082,-291.2806 539,-262.0244 496.7225,-246.7558 458.6838,-210.1012 436.2073,-184.9066"/>
<polygon fill="#000000" stroke="#000000" points="438.6776,-182.4137 429.4709,-177.1708 433.3986,-187.0108 438.6776,-182.4137"/>
<text text-anchor="middle" x="646.5" y="-288.2244" font-family="sans" font-size="16.00" fill="#000000">7a: responds with key</text>
</g>
</g>
</svg>
