<?xml version="1.0" encoding="UTF-8" standalone="no"?>
<!DOCTYPE svg PUBLIC "-//W3C//DTD SVG 1.1//EN"
 "http://www.w3.org/Graphics/SVG/1.1/DTD/svg11.dtd">
<!-- Generated by graphviz version 2.40.1 (20161225.0304)
 -->
<!-- Title: EME Pages: 1 -->
<svg width="1384pt" height="475pt"
 viewBox="0.00 0.00 1384.00 474.57" xmlns="http://www.w3.org/2000/svg" xmlns:xlink="http://www.w3.org/1999/xlink">
<g id="graph0" class="graph" transform="scale(1 1) rotate(0) translate(4 470.5659)">
<title>EME</title>
<polygon fill="#ffffff" stroke="transparent" points="-4,4 -4,-470.5659 1380,-470.5659 1380,4 -4,4"/>
<g id="clust1" class="cluster">
<title>cluster_local</title>
<polygon fill="#eeeeee" stroke="#eeeeee" points="8,-254.5659 8,-458.5659 988,-458.5659 988,-254.5659 8,-254.5659"/>
<text text-anchor="middle" x="498" y="-435.3659" font-family="sans" font-size="24.00" fill="#000000">Local</text>
</g>
<g id="clust2" class="cluster">
<title>cluster_remote</title>
<polygon fill="#dddddd" stroke="#dddddd" points="326.5,-14.5659 326.5,-246.5659 1368,-246.5659 1368,-14.5659 326.5,-14.5659"/>
<text text-anchor="middle" x="847.25" y="-223.3659" font-family="sans" font-size="24.00" fill="#000000">Remote</text>
</g>
<!-- CDM -->
<g id="node1" class="node">
<title>CDM</title>
<polygon fill="none" stroke="#000000" points="80,-308.5659 16,-308.5659 16,-304.5659 12,-304.5659 12,-300.5659 16,-300.5659 16,-280.5659 12,-280.5659 12,-276.5659 16,-276.5659 16,-272.5659 80,-272.5659 80,-308.5659"/>
<polyline fill="none" stroke="#000000" points="16,-304.5659 20,-304.5659 20,-300.5659 16,-300.5659 "/>
<polyline fill="none" stroke="#000000" points="16,-280.5659 20,-280.5659 20,-276.5659 16,-276.5659 "/>
<text text-anchor="middle" x="48" y="-285.5659" font-family="sans" font-size="20.00" fill="#000000">CDM</text>
</g>
<!-- Browser -->
<g id="node2" class="node">
<title>Browser</title>
<polygon fill="none" stroke="#000000" points="931,-362.0659 832,-362.0659 832,-263.0659 931,-263.0659 931,-362.0659"/>
<polyline fill="none" stroke="#000000" points="844,-362.0659 832,-350.0659 "/>
<polyline fill="none" stroke="#000000" points="832,-275.0659 844,-263.0659 "/>
<polyline fill="none" stroke="#000000" points="919,-263.0659 931,-275.0659 "/>
<polyline fill="none" stroke="#000000" points="931,-350.0659 919,-362.0659 "/>
<text text-anchor="middle" x="881.5" y="-307.5659" font-family="sans" font-size="20.00" fill="#000000">Browser</text>
</g>
<!-- CDM&#45;&gt;Browser -->
<g id="edge3" class="edge">
<title>CDM&#45;&gt;Browser</title>
<path fill="none" stroke="#000000" d="M80.1635,-291.4149C204.8011,-294.7046 657.1511,-306.6443 821.3899,-310.9793"/>
<polygon fill="#000000" stroke="#000000" points="821.6959,-314.4885 831.7848,-311.2537 821.8807,-307.491 821.6959,-314.4885"/>
<text text-anchor="middle" x="425.5" y="-307.7659" font-family="sans" font-size="16.00" fill="#000000">8b: sends decrypted media</text>
</g>
<!-- MediaKeySession -->
<g id="node3" class="node">
<title>MediaKeySession</title>
<polygon fill="none" stroke="#000000" points="980,-416.5659 787,-416.5659 783,-412.5659 783,-380.5659 976,-380.5659 980,-384.5659 980,-416.5659"/>
<polyline fill="none" stroke="#000000" points="976,-412.5659 783,-412.5659 "/>
<polyline fill="none" stroke="#000000" points="976,-412.5659 976,-380.5659 "/>
<polyline fill="none" stroke="#000000" points="976,-412.5659 980,-416.5659 "/>
<text text-anchor="middle" x="881.5" y="-393.5659" font-family="Monospace" font-size="20.00" fill="#000000">MediaKeySession</text>
</g>
<!-- CDM&#45;&gt;MediaKeySession -->
<g id="edge1" class="edge">
<title>CDM&#45;&gt;MediaKeySession</title>
<path fill="none" stroke="#000000" d="M80.2531,-295.8803C86.1519,-296.8085 92.257,-297.7402 98,-298.5659 338.3226,-333.1193 621.0042,-367.7114 772.4933,-385.7601"/>
<polygon fill="#000000" stroke="#000000" points="772.3821,-389.2715 782.7257,-386.9778 773.2094,-382.3206 772.3821,-389.2715"/>
<text text-anchor="middle" x="425.5" y="-359.7659" font-family="sans" font-size="16.00" fill="#000000">5: message event</text>
</g>
<!-- Web Application -->
<g id="node4" class="node">
<title>Web Application</title>
<polygon fill="none" stroke="#000000" points="516.5,-204.5659 334.5,-204.5659 334.5,-22.5659 516.5,-22.5659 516.5,-204.5659"/>
<text text-anchor="middle" x="425.5" y="-108.5659" font-family="sans" font-size="20.00" fill="#000000">Web Application</text>
</g>
<!-- Browser&#45;&gt;Web Application -->
<g id="edge7" class="edge">
<title>Browser&#45;&gt;Web Application</title>
<path fill="none" stroke="#000000" d="M831.7732,-290.1441C814.3035,-280.1731 795.8488,-266.9387 783,-250.5659 767.3819,-230.6642 784.7021,-212.435 765,-196.5659 727.7507,-166.5635 597.0125,-186.6236 551,-173.5659 542.7288,-171.2187 534.3309,-168.3639 526.0015,-165.1881"/>
<polygon fill="#000000" stroke="#000000" points="527.2231,-161.9074 516.637,-161.4761 524.6435,-168.4148 527.2231,-161.9074"/>
<text text-anchor="middle" x="658" y="-201.7659" font-family="sans" font-size="16.00" fill="#000000">1a: loads</text>
</g>
<!-- Browser&#45;&gt;Web Application -->
<g id="edge10" class="edge">
<title>Browser&#45;&gt;Web Application</title>
<path fill="none" stroke="#000000" d="M831.7765,-291.788C813.766,-281.8611 794.9387,-268.2269 783,-250.5659 757.9543,-213.5157 798.0329,-181.7126 765,-151.5659 747.3677,-135.4742 574.7013,-135.4094 551,-132.5659 543.0669,-131.6141 534.8636,-130.5509 526.6255,-129.4267"/>
<polygon fill="#000000" stroke="#000000" points="526.9625,-125.94 516.5756,-128.0287 525.998,-132.8732 526.9625,-125.94"/>
<text text-anchor="middle" x="658" y="-156.7659" font-family="sans" font-size="16.00" fill="#000000">2c: encrypted event</text>
</g>
<!-- Encrypted Media -->
<g id="node5" class="node">
<title>Encrypted Media</title>
<polygon fill="none" stroke="#000000" points="1354,-182.5659 1172,-182.5659 1172,-146.5659 1360,-146.5659 1360,-176.5659 1354,-182.5659"/>
<polyline fill="none" stroke="#000000" points="1354,-182.5659 1354,-176.5659 "/>
<polyline fill="none" stroke="#000000" points="1360,-176.5659 1354,-176.5659 "/>
<text text-anchor="middle" x="1266" y="-159.5659" font-family="sans" font-size="20.00" fill="#000000">Encrypted Media</text>
</g>
<!-- Browser&#45;&gt;Encrypted Media -->
<g id="edge8" class="edge">
<title>Browser&#45;&gt;Encrypted Media</title>
<path fill="none" stroke="#000000" d="M931.3725,-293.3692C1002.9355,-265.8235 1134.3793,-215.2288 1209.4632,-186.3278"/>
<polygon fill="#000000" stroke="#000000" points="1211.1499,-189.4289 1219.2252,-182.5703 1208.6353,-182.8962 1211.1499,-189.4289"/>
<text text-anchor="middle" x="1076" y="-269.7659" font-family="sans" font-size="16.00" fill="#000000">2a: reads metadata</text>
</g>
<!-- MediaKeySession&#45;&gt;CDM -->
<g id="edge2" class="edge">
<title>MediaKeySession&#45;&gt;CDM</title>
<path fill="none" stroke="#000000" d="M782.8751,-401.4555C669.8756,-403.2104 479.4785,-401.4067 318,-376.5659 217.8294,-361.1563 192.3842,-353.4878 98,-316.5659 95.1312,-315.4437 92.2119,-314.2042 89.2977,-312.8934"/>
<polygon fill="#000000" stroke="#000000" points="90.6112,-309.6427 80.0761,-308.5195 87.6114,-315.9674 90.6112,-309.6427"/>
<text text-anchor="middle" x="425.5" y="-401.7659" font-family="sans" font-size="16.00" fill="#000000">7c: provides license key</text>
</g>
<!-- Web Application&#45;&gt;CDM -->
<g id="edge12" class="edge">
<title>Web Application&#45;&gt;CDM</title>
<path fill="none" stroke="#000000" d="M334.4524,-156.2558C256.5819,-192.7673 148.08,-243.641 89.4922,-271.1113"/>
<polygon fill="#000000" stroke="#000000" points="87.7537,-268.0607 80.1854,-275.475 90.7255,-274.3986 87.7537,-268.0607"/>
<text text-anchor="middle" x="199" y="-269.7659" font-family="sans" font-size="16.00" fill="#000000">4: sends media metadata</text>
</g>
<!-- Web Application&#45;&gt;MediaKeySession -->
<g id="edge11" class="edge">
<title>Web Application&#45;&gt;MediaKeySession</title>
<path fill="none" stroke="#000000" d="M516.6657,-196.2589C527.6986,-203.3735 539.2417,-209.7002 551,-214.5659 595.1949,-232.8543 730.735,-204.1958 765,-237.5659 808.0489,-279.4904 743.4499,-326.3259 783,-371.5659 783.6382,-372.296 784.2941,-373.0071 784.9667,-373.6999"/>
<polygon fill="#000000" stroke="#000000" points="782.9079,-376.5467 792.7614,-380.4402 787.4865,-371.2518 782.9079,-376.5467"/>
<text text-anchor="middle" x="658" y="-242.7659" font-family="sans" font-size="16.00" fill="#000000">3: creates</text>
</g>
<!-- Web Application&#45;&gt;MediaKeySession -->
<g id="edge13" class="edge">
<title>Web Application&#45;&gt;MediaKeySession</title>
<path fill="none" stroke="#000000" d="M492.5471,-204.6063C509.8784,-223.5095 529.7136,-241.8293 551,-255.5659 634.6301,-309.5342 693.0067,-252.8379 765,-321.5659 782.0836,-337.8747 765.6607,-355.5292 783,-371.5659 784.139,-372.6194 785.3153,-373.6324 786.5248,-374.6064"/>
<polygon fill="#000000" stroke="#000000" points="784.7471,-377.6338 794.9508,-380.4862 788.753,-371.8933 784.7471,-377.6338"/>
<text text-anchor="middle" x="658" y="-326.7659" font-family="sans" font-size="16.00" fill="#000000">7b: updates key</text>
</g>
<!-- Web Application&#45;&gt;Encrypted Media -->
<g id="edge4" class="edge">
<title>Web Application&#45;&gt;Encrypted Media</title>
<path fill="none" stroke="#000000" d="M516.6849,-118.1601C654.6736,-125.2624 924.7688,-139.7498 1154,-155.5659 1156.5542,-155.7421 1159.141,-155.924 1161.7501,-156.1103"/>
<polygon fill="#000000" stroke="#000000" points="1161.6763,-159.6141 1171.904,-156.8495 1162.1846,-152.6326 1161.6763,-159.6141"/>
<text text-anchor="middle" x="881.5" y="-149.7659" font-family="sans" font-size="16.00" fill="#000000">1b: contains</text>
</g>
<!-- License Server -->
<g id="node6" class="node">
<title>License Server</title>
<path fill="none" stroke="#000000" d="M1349.5,-86.5438C1349.5,-88.6256 1312.074,-90.3167 1266,-90.3167 1219.926,-90.3167 1182.5,-88.6256 1182.5,-86.5438 1182.5,-86.5438 1182.5,-52.588 1182.5,-52.588 1182.5,-50.5062 1219.926,-48.8151 1266,-48.8151 1312.074,-48.8151 1349.5,-50.5062 1349.5,-52.588 1349.5,-52.588 1349.5,-86.5438 1349.5,-86.5438"/>
<path fill="none" stroke="#000000" d="M1349.5,-86.5438C1349.5,-84.462 1312.074,-82.7709 1266,-82.7709 1219.926,-82.7709 1182.5,-84.462 1182.5,-86.5438"/>
<text text-anchor="middle" x="1266" y="-64.5659" font-family="sans" font-size="20.00" fill="#000000">License Server</text>
</g>
<!-- Web Application&#45;&gt;License Server -->
<g id="edge5" class="edge">
<title>Web Application&#45;&gt;License Server</title>
<path fill="none" stroke="#000000" d="M516.5892,-95.7119C528.1593,-93.5721 539.8485,-91.4726 551,-89.5659 653.7863,-71.9914 679.0142,-62.3655 783,-54.5659 873.8559,-47.7511 896.922,-52.1106 988,-54.5659 1049.3915,-56.2209 1118.3259,-59.9283 1172.1922,-63.2429"/>
<polygon fill="#000000" stroke="#000000" points="1172.2153,-66.751 1182.4132,-63.8783 1172.6497,-59.7645 1172.2153,-66.751"/>
<text text-anchor="middle" x="881.5" y="-59.7659" font-family="sans" font-size="16.00" fill="#000000">6: requests key</text>
</g>
<!-- Encrypted Media&#45;&gt;CDM -->
<g id="edge14" class="edge">
<title>Encrypted Media&#45;&gt;CDM</title>
<path fill="none" stroke="#000000" d="M1233.4129,-146.5241C1182.6943,-119.4307 1081.0152,-69.0236 988,-46.5659 886.1025,-21.9637 428.5648,22.0233 318,-13.5659 203.4088,-50.4511 173.0257,-77.4235 98,-171.5659 76.2732,-198.8287 62.4885,-236.9012 55.0166,-262.5782"/>
<polygon fill="#000000" stroke="#000000" points="51.5857,-261.853 52.2834,-272.4248 58.3306,-263.7252 51.5857,-261.853"/>
<text text-anchor="middle" x="658" y="-21.7659" font-family="sans" font-size="16.00" fill="#000000">8a: reads encrypted media</text>
</g>
<!-- Encrypted Media&#45;&gt;Browser -->
<g id="edge9" class="edge">
<title>Encrypted Media&#45;&gt;Browser</title>
<path fill="none" stroke="#000000" d="M1171.8315,-159.992C1104.915,-158.8929 1022.714,-162.6266 998,-185.5659 976.5773,-205.4503 1004.4585,-226.4114 988,-250.5659 976.3562,-267.6543 958.3238,-280.677 940.3865,-290.2681"/>
<polygon fill="#000000" stroke="#000000" points="938.404,-287.3478 931.0495,-294.9742 941.5547,-293.5987 938.404,-287.3478"/>
<text text-anchor="middle" x="1076" y="-190.7659" font-family="sans" font-size="16.00" fill="#000000">2b: is encrypted</text>
</g>
<!-- License Server&#45;&gt;Web Application -->
<g id="edge6" class="edge">
<title>License Server&#45;&gt;Web Application</title>
<path fill="none" stroke="#000000" d="M1182.3015,-73.9475C1026.9172,-82.0818 694.4515,-99.4864 526.7177,-108.2672"/>
<polygon fill="#000000" stroke="#000000" points="526.4505,-104.7763 516.6472,-108.7944 526.8165,-111.7667 526.4505,-104.7763"/>
<text text-anchor="middle" x="881.5" y="-98.7659" font-family="sans" font-size="16.00" fill="#000000">7a: responds with key</text>
</g>
</g>
</svg>
