<?xml version="1.0" encoding="UTF-8" standalone="no"?>
<!DOCTYPE svg PUBLIC "-//W3C//DTD SVG 1.1//EN"
 "http://www.w3.org/Graphics/SVG/1.1/DTD/svg11.dtd">
<!-- Generated by graphviz version 2.40.1 (20161225.0304)
 -->
<!-- Title: EME Pages: 1 -->
<svg width="1158pt" height="345pt"
 viewBox="0.00 0.00 1157.77 345.00" xmlns="http://www.w3.org/2000/svg" xmlns:xlink="http://www.w3.org/1999/xlink">
<g id="graph0" class="graph" transform="scale(1 1) rotate(0) translate(4 341)">
<title>EME</title>
<polygon fill="#ffffff" stroke="transparent" points="-4,4 -4,-341 1153.7671,-341 1153.7671,4 -4,4"/>
<!-- Browser -->
<g id="node1" class="node">
<title>Browser</title>
<polygon fill="none" stroke="#000000" points="719.7671,-337 643.7671,-337 643.7671,-261 719.7671,-261 719.7671,-337"/>
<polyline fill="none" stroke="#000000" points="655.7671,-337 643.7671,-325 "/>
<polyline fill="none" stroke="#000000" points="643.7671,-273 655.7671,-261 "/>
<polyline fill="none" stroke="#000000" points="707.7671,-261 719.7671,-273 "/>
<polyline fill="none" stroke="#000000" points="719.7671,-325 707.7671,-337 "/>
<text text-anchor="middle" x="681.7671" y="-295.3" font-family="sans" font-size="14.00" fill="#000000">Browser</text>
</g>
<!-- Web Application -->
<g id="node4" class="node">
<title>Web Application</title>
<polygon fill="none" stroke="#000000" points="512.2671,-210 393.2671,-210 393.2671,-214 381.2671,-214 381.2671,-174 512.2671,-174 512.2671,-210"/>
<polyline fill="none" stroke="#000000" points="381.2671,-210 393.2671,-210 "/>
<text text-anchor="middle" x="446.7671" y="-188.3" font-family="sans" font-size="14.00" fill="#000000">Web Application</text>
</g>
<!-- Browser&#45;&gt;Web Application -->
<g id="edge1" class="edge">
<title>Browser&#45;&gt;Web Application</title>
<path fill="none" stroke="#000000" d="M643.6181,-272.2607C615.8111,-252.8424 582.3865,-229.6814 578.7671,-228 561.0643,-219.7762 541.1253,-213.1226 522.2099,-207.8785"/>
<polygon fill="#000000" stroke="#000000" points="522.9936,-204.4652 512.4289,-205.2638 521.1858,-211.2277 522.9936,-204.4652"/>
<text text-anchor="middle" x="633.7671" y="-231.8" font-family="sans" font-size="14.00" fill="#000000">1a: loads</text>
</g>
<!-- Browser&#45;&gt;Web Application -->
<g id="edge5" class="edge">
<title>Browser&#45;&gt;Web Application</title>
<path fill="none" stroke="#000000" d="M643.7522,-296.1535C580.4774,-290.5387 457.9009,-275.6354 431.7671,-243 426.3768,-236.2687 426.9196,-227.657 429.7825,-219.4343"/>
<polygon fill="#000000" stroke="#000000" points="433.0732,-220.6511 433.9926,-210.0962 426.6918,-217.774 433.0732,-220.6511"/>
<text text-anchor="middle" x="503.2671" y="-231.8" font-family="sans" font-size="14.00" fill="#000000">2c: encrypted event</text>
</g>
<!-- Encrypted Media -->
<g id="node5" class="node">
<title>Encrypted Media</title>
<polygon fill="none" stroke="#000000" points="883.7671,-117 747.7671,-117 747.7671,-93 883.7671,-93 883.7671,-117"/>
<polyline fill="none" stroke="#000000" points="750.7671,-106.5 753.7671,-103.5 "/>
<polyline fill="none" stroke="#000000" points="750.7671,-103.5 753.7671,-106.5 "/>
<polyline fill="none" stroke="#000000" points="750.7671,-96 880.7671,-96 "/>
<text text-anchor="middle" x="815.7671" y="-101.3" font-family="sans" font-size="14.00" fill="#000000">Encrypted Media</text>
</g>
<!-- Browser&#45;&gt;Encrypted Media -->
<g id="edge3" class="edge">
<title>Browser&#45;&gt;Encrypted Media</title>
<path fill="none" stroke="#000000" d="M719.8568,-280.8344C747.0235,-265.7838 781.9495,-241.732 800.7671,-210 814.5698,-186.7246 817.4688,-155.5717 817.4341,-133.2549"/>
<polygon fill="#000000" stroke="#000000" points="820.9296,-133.0052 817.2163,-123.0825 813.9312,-133.1551 820.9296,-133.0052"/>
<text text-anchor="middle" x="883.7671" y="-188.3" font-family="sans" font-size="14.00" fill="#000000">2a: reads metadata</text>
</g>
<!-- MediaKeySession -->
<g id="node2" class="node">
<title>MediaKeySession</title>
<polygon fill="none" stroke="#000000" points="409.7671,-123 273.7671,-123 269.7671,-119 269.7671,-87 405.7671,-87 409.7671,-91 409.7671,-123"/>
<polyline fill="none" stroke="#000000" points="405.7671,-119 269.7671,-119 "/>
<polyline fill="none" stroke="#000000" points="405.7671,-119 405.7671,-87 "/>
<polyline fill="none" stroke="#000000" points="405.7671,-119 409.7671,-123 "/>
<text text-anchor="middle" x="339.7671" y="-101.3" font-family="Monospace" font-size="14.00" fill="#000000">MediaKeySession</text>
</g>
<!-- CDM -->
<g id="node3" class="node">
<title>CDM</title>
<polygon fill="none" stroke="#000000" points="560.7671,-30 518.7671,-30 518.7671,-6 560.7671,-6 572.7671,-18 560.7671,-30"/>
<text text-anchor="middle" x="545.7671" y="-14.3" font-family="sans" font-size="14.00" fill="#000000">CDM</text>
</g>
<!-- MediaKeySession&#45;&gt;CDM -->
<g id="edge12" class="edge">
<title>MediaKeySession&#45;&gt;CDM</title>
<path fill="none" stroke="#000000" d="M342.7658,-86.8307C345.5518,-75.7219 350.8402,-62.1297 360.7671,-54 382.8898,-35.8826 461.039,-25.7233 508.3996,-21.1007"/>
<polygon fill="#000000" stroke="#000000" points="508.95,-24.5645 518.5794,-20.1458 508.2962,-17.5951 508.95,-24.5645"/>
<text text-anchor="middle" x="446.2671" y="-57.8" font-family="sans" font-size="14.00" fill="#000000">7c: provides license key</text>
</g>
<!-- CDM&#45;&gt;Browser -->
<g id="edge14" class="edge">
<title>CDM&#45;&gt;Browser</title>
<path fill="none" stroke="#000000" d="M572.9519,-19.3413C650.3828,-23.3639 868.227,-36.1601 894.7671,-54 944.9318,-87.72 944.1072,-115.3603 958.7671,-174 962.6477,-189.5223 968.1929,-197.0712 958.7671,-210 931.575,-247.298 802.0294,-276.7017 730.1324,-290.4731"/>
<polygon fill="#000000" stroke="#000000" points="729.1403,-287.0984 719.9619,-292.3906 730.4373,-293.9772 729.1403,-287.0984"/>
<text text-anchor="middle" x="1051.7671" y="-144.8" font-family="sans" font-size="14.00" fill="#000000">8b: sends decrypted media</text>
</g>
<!-- CDM&#45;&gt;MediaKeySession -->
<g id="edge8" class="edge">
<title>CDM&#45;&gt;MediaKeySession</title>
<path fill="none" stroke="#000000" d="M518.7627,-18.8536C442.4518,-21.5415 229.393,-31.0534 208.7671,-54 187.7995,-77.3268 220.8983,-90.0857 259.0636,-97.0085"/>
<polygon fill="#000000" stroke="#000000" points="258.9422,-100.5365 269.3816,-98.7279 260.093,-93.6317 258.9422,-100.5365"/>
<text text-anchor="middle" x="273.2671" y="-57.8" font-family="sans" font-size="14.00" fill="#000000">5: message event</text>
</g>
<!-- Web Application&#45;&gt;MediaKeySession -->
<g id="edge6" class="edge">
<title>Web Application&#45;&gt;MediaKeySession</title>
<path fill="none" stroke="#000000" d="M447.4053,-173.5926C446.824,-162.9489 444.364,-149.937 436.7671,-141 431.6955,-135.0337 425.5383,-130.0554 418.8124,-125.9017"/>
<polygon fill="#000000" stroke="#000000" points="420.4764,-122.8225 410.0276,-121.0691 417.1023,-128.9557 420.4764,-122.8225"/>
<text text-anchor="middle" x="480.7671" y="-144.8" font-family="sans" font-size="14.00" fill="#000000">3: creates</text>
</g>
<!-- Web Application&#45;&gt;MediaKeySession -->
<g id="edge11" class="edge">
<title>Web Application&#45;&gt;MediaKeySession</title>
<path fill="none" stroke="#000000" d="M381.2473,-181.2675C353.6437,-175.2847 325.9917,-166.834 317.7671,-156 312.2864,-148.7804 313.7968,-139.9865 317.9031,-131.7479"/>
<polygon fill="#000000" stroke="#000000" points="320.9433,-133.485 323.1698,-123.1268 314.9698,-129.8357 320.9433,-133.485"/>
<text text-anchor="middle" x="375.2671" y="-144.8" font-family="sans" font-size="14.00" fill="#000000">7b: updates key</text>
</g>
<!-- Web Application&#45;&gt;CDM -->
<g id="edge7" class="edge">
<title>Web Application&#45;&gt;CDM</title>
<path fill="none" stroke="#000000" d="M499.8837,-173.9213C507.8569,-169.18 515.2436,-163.2867 520.7671,-156 544.8706,-124.2023 548.3594,-76.5654 547.7489,-46.3977"/>
<polygon fill="#000000" stroke="#000000" points="551.2367,-45.9991 547.3692,-36.1354 544.2415,-46.258 551.2367,-45.9991"/>
<text text-anchor="middle" x="637.7671" y="-101.3" font-family="sans" font-size="14.00" fill="#000000">4: sends media metadata</text>
</g>
<!-- Web Application&#45;&gt;Encrypted Media -->
<g id="edge2" class="edge">
<title>Web Application&#45;&gt;Encrypted Media</title>
<path fill="none" stroke="#000000" d="M511.5675,-173.9148C526.7003,-168.8421 542.5438,-162.8197 556.7671,-156 567.7716,-150.7236 568.291,-145.1518 579.7671,-141 644.5672,-117.5568 665.8065,-134.4016 733.7671,-123 735.0204,-122.7897 736.2834,-122.5729 737.554,-122.3503"/>
<polygon fill="#000000" stroke="#000000" points="738.2067,-125.789 747.4096,-120.5396 736.9418,-118.9042 738.2067,-125.789"/>
<text text-anchor="middle" x="623.7671" y="-144.8" font-family="sans" font-size="14.00" fill="#000000">1b: contains</text>
</g>
<!-- License Server -->
<g id="node6" class="node">
<title>License Server</title>
<path fill="none" stroke="#000000" d="M169.7671,-119.7273C169.7671,-121.5331 142.4259,-123 108.7671,-123 75.1083,-123 47.7671,-121.5331 47.7671,-119.7273 47.7671,-119.7273 47.7671,-90.2727 47.7671,-90.2727 47.7671,-88.4669 75.1083,-87 108.7671,-87 142.4259,-87 169.7671,-88.4669 169.7671,-90.2727 169.7671,-90.2727 169.7671,-119.7273 169.7671,-119.7273"/>
<path fill="none" stroke="#000000" d="M169.7671,-119.7273C169.7671,-117.9214 142.4259,-116.4545 108.7671,-116.4545 75.1083,-116.4545 47.7671,-117.9214 47.7671,-119.7273"/>
<text text-anchor="middle" x="108.7671" y="-101.3" font-family="sans" font-size="14.00" fill="#000000">License Server</text>
</g>
<!-- Web Application&#45;&gt;License Server -->
<g id="edge9" class="edge">
<title>Web Application&#45;&gt;License Server</title>
<path fill="none" stroke="#000000" d="M381.0475,-188.8202C330.6183,-184.8564 259.8581,-175.9595 200.7671,-156 181.0592,-149.3432 160.6753,-138.5134 144.1187,-128.542"/>
<polygon fill="#000000" stroke="#000000" points="145.6904,-125.399 135.343,-123.1226 142.0124,-131.3549 145.6904,-125.399"/>
<text text-anchor="middle" x="255.7671" y="-144.8" font-family="sans" font-size="14.00" fill="#000000">6: requests key</text>
</g>
<!-- Encrypted Media&#45;&gt;Browser -->
<g id="edge4" class="edge">
<title>Encrypted Media&#45;&gt;Browser</title>
<path fill="none" stroke="#000000" d="M748.6487,-123.0379C723.115,-133.5256 696.6178,-149.6492 681.7671,-174 667.9133,-196.7163 667.3296,-226.3457 670.4828,-251.0557"/>
<polygon fill="#000000" stroke="#000000" points="667.0238,-251.5908 671.974,-260.9581 673.9458,-250.5484 667.0238,-251.5908"/>
<text text-anchor="middle" x="739.2671" y="-188.3" font-family="sans" font-size="14.00" fill="#000000">2b: is encrypted</text>
</g>
<!-- Encrypted Media&#45;&gt;CDM -->
<g id="edge13" class="edge">
<title>Encrypted Media&#45;&gt;CDM</title>
<path fill="none" stroke="#000000" d="M759.8229,-86.9735C706.6903,-69.853 628.332,-44.6042 582.6262,-29.8768"/>
<polygon fill="#000000" stroke="#000000" points="583.4328,-26.4596 572.8413,-26.7239 581.2859,-33.1222 583.4328,-26.4596"/>
<text text-anchor="middle" x="793.7671" y="-57.8" font-family="sans" font-size="14.00" fill="#000000">8a: reads encrypted media</text>
</g>
<!-- License Server&#45;&gt;Web Application -->
<g id="edge10" class="edge">
<title>License Server&#45;&gt;Web Application</title>
<path fill="none" stroke="#000000" d="M47.4712,-115.5824C16.0709,-123.5804 -12.1514,-136.5591 5.7671,-156 17.9518,-169.2199 248.2189,-182.3596 371.043,-188.4646"/>
<polygon fill="#000000" stroke="#000000" points="370.9793,-191.9656 381.1396,-188.9627 371.3242,-184.9741 370.9793,-191.9656"/>
<text text-anchor="middle" x="84.2671" y="-144.8" font-family="sans" font-size="14.00" fill="#000000">7a: responds with key</text>
</g>
</g>
</svg>
