<svg version="1.1" xmlns="http://www.w3.org/2000/svg" xmlns:xlink="http://www.w3.org/1999/xlink" width="721" height="436"><defs></defs><g><g transform="translate(-94,-134) scale(1,1)"><path fill="none" stroke="#000000" d="M 184 144 L 680 144 L 680 560 L 184 560 L 184 144" stroke-miterlimit="10"></path></g><g transform="translate(-94,-134) scale(1,1)"><path fill="#ffffff" stroke="none" d="M 184 144 L 184 166 L 341 166 L 352 155 L 352 144 L 184 144"></path></g><g transform="translate(-94,-134) scale(1,1)"><path fill="none" stroke="#000000" d="M 184 144 L 184 166 L 341 166 L 352 155 L 352 144 L 184 144 L 184 144" stroke-miterlimit="10"></path></g><g transform="translate(-94,-134) scale(1,1)"><g><path fill="none" stroke="none"></path><text fill="#000000" stroke="none" font-family="Arial" font-size="13px" font-style="normal" font-weight="normal" text-decoration="none" x="244" y="161.5">Produktautomat</text></g></g><g transform="translate(-94,-134) scale(1,1)"><g><path fill="none" stroke="none"></path><text fill="#000000" stroke="none" font-family="Arial" font-size="13px" font-style="normal" font-weight="bold" text-decoration="none" x="189" y="161.5">package</text></g></g><g transform="translate(-94,-134) scale(1,1)"><path fill="#ffffff" stroke="none" d="M 119.82072727272728 313.68 C 119.82072727272728 308.886167936 123.70656959767274 305 128.5 305 C 133.29343040232726 305 137.17927272727272 308.886167936 137.17927272727272 313.68 C 137.17927272727272 318.473832064 133.29343040232726 322.36 128.5 322.36 C 123.70656959767274 322.36 119.82072727272728 318.473832064 119.82072727272728 313.68 Z"></path></g><g transform="translate(-94,-134) scale(1,1)"><path fill="none" stroke="#000000" d="M 119.82072727272728 313.68 C 119.82072727272728 308.886167936 123.70656959767274 305 128.5 305 C 133.29343040232726 305 137.17927272727272 308.886167936 137.17927272727272 313.68 C 137.17927272727272 318.473832064 133.29343040232726 322.36 128.5 322.36 C 123.70656959767274 322.36 119.82072727272728 318.473832064 119.82072727272728 313.68 Z" stroke-miterlimit="10"></path></g><g transform="translate(-94,-134) scale(1,1)"><path fill="none" stroke="#000000" d="M 128.5 322.36 L 128.5 339.64" stroke-miterlimit="10"></path></g><g transform="translate(-94,-134) scale(1,1)"><path fill="none" stroke="#000000" d="M 119.31018181818183 328.84 L 137.68981818181817 328.84" stroke-miterlimit="10"></path></g><g transform="translate(-94,-134) scale(1,1)"><path fill="none" stroke="#000000" d="M 128.5 339.64 L 115.73636363636365 357" stroke-miterlimit="10"></path></g><g transform="translate(-94,-134) scale(1,1)"><path fill="none" stroke="#000000" d="M 128.5 339.64 L 141.26363636363635 357" stroke-miterlimit="10"></path></g><g transform="translate(-94,-134) scale(1,1)"><g><path fill="none" stroke="none"></path><text fill="#000000" stroke="none" font-family="Arial" font-size="13px" font-style="normal" font-weight="bold" text-decoration="none" x="110" y="377.5">Kunde</text></g></g><g transform="translate(-94,-134) scale(1,1)"><path fill="#ffffff" stroke="none" d="M 741.8207272727273 313.68 C 741.8207272727273 308.886167936 745.7065695976727 305 750.5 305 C 755.2934304023273 305 759.1792727272727 308.886167936 759.1792727272727 313.68 C 759.1792727272727 318.473832064 755.2934304023273 322.36 750.5 322.36 C 745.7065695976727 322.36 741.8207272727273 318.473832064 741.8207272727273 313.68 Z"></path></g><g transform="translate(-94,-134) scale(1,1)"><path fill="none" stroke="#000000" d="M 741.8207272727273 313.68 C 741.8207272727273 308.886167936 745.7065695976727 305 750.5 305 C 755.2934304023273 305 759.1792727272727 308.886167936 759.1792727272727 313.68 C 759.1792727272727 318.473832064 755.2934304023273 322.36 750.5 322.36 C 745.7065695976727 322.36 741.8207272727273 318.473832064 741.8207272727273 313.68 Z" stroke-miterlimit="10"></path></g><g transform="translate(-94,-134) scale(1,1)"><path fill="none" stroke="#000000" d="M 750.5 322.36 L 750.5 339.64" stroke-miterlimit="10"></path></g><g transform="translate(-94,-134) scale(1,1)"><path fill="none" stroke="#000000" d="M 741.3101818181818 328.84 L 759.6898181818182 328.84" stroke-miterlimit="10"></path></g><g transform="translate(-94,-134) scale(1,1)"><path fill="none" stroke="#000000" d="M 750.5 339.64 L 737.7363636363636 357" stroke-miterlimit="10"></path></g><g transform="translate(-94,-134) scale(1,1)"><path fill="none" stroke="#000000" d="M 750.5 339.64 L 763.2636363636364 357" stroke-miterlimit="10"></path></g><g transform="translate(-94,-134) scale(1,1)"><g><path fill="none" stroke="none"></path><text fill="#000000" stroke="none" font-family="Arial" font-size="13px" font-style="normal" font-weight="bold" text-decoration="none" x="704" y="377.5">Servicepersonal</text></g></g><g transform="translate(-94,-134) scale(1,1)"><path fill="#C0C0C0" stroke="none" d="M 207 344 C 207 334.6111584 233.862912 327 267 327 C 300.137088 327 327 334.6111584 327 344 C 327 353.3888416 300.137088 361 267 361 C 233.862912 361 207 353.3888416 207 344 Z" opacity="0.2"></path></g><g transform="translate(-94,-134) scale(1,1)"><path fill="#ffffff" stroke="none" d="M 200 337 C 200 327.6111584 226.862912 320 260 320 C 293.137088 320 320 327.6111584 320 337 C 320 346.3888416 293.137088 354 260 354 C 226.862912 354 200 346.3888416 200 337 Z"></path></g><g transform="translate(-94,-134) scale(1,1)"><path fill="none" stroke="#000000" d="M 200 337 C 200 327.6111584 226.862912 320 260 320 C 293.137088 320 320 327.6111584 320 337 C 320 346.3888416 293.137088 354 260 354 C 226.862912 354 200 346.3888416 200 337 Z" stroke-miterlimit="10"></path></g><g transform="translate(-94,-134) scale(1,1)"><g><path fill="none" stroke="none"></path><text fill="#000000" stroke="none" font-family="Arial" font-size="13px" font-style="normal" font-weight="bold" text-decoration="none" x="223.5" y="344">Ware kaufen</text></g></g><g transform="translate(-94,-134) scale(1,1)"><path fill="#C0C0C0" stroke="none" d="M 399 240 C 399 230.6111584 454.9644 223 524 223 C 593.0356 223 649 230.6111584 649 240 C 649 249.3888416 593.0356 257 524 257 C 454.9644 257 399 249.3888416 399 240 Z" opacity="0.2"></path></g><g transform="translate(-94,-134) scale(1,1)"><path fill="#ffffff" stroke="none" d="M 392 233 C 392 223.6111584 447.9644 216 517 216 C 586.0356 216 642 223.6111584 642 233 C 642 242.3888416 586.0356 250 517 250 C 447.9644 250 392 242.3888416 392 233 Z"></path></g><g transform="translate(-94,-134) scale(1,1)"><path fill="none" stroke="#000000" d="M 392 233 C 392 223.6111584 447.9644 216 517 216 C 586.0356 216 642 223.6111584 642 233 C 642 242.3888416 586.0356 250 517 250 C 447.9644 250 392 242.3888416 392 233 Z" stroke-miterlimit="10"></path></g><g transform="translate(-94,-134) scale(1,1)"><g><path fill="none" stroke="none"></path><text fill="#000000" stroke="none" font-family="Arial" font-size="13px" font-style="normal" font-weight="bold" text-decoration="none" x="439.5" y="240">Automat mit Produkt füllen</text></g></g><g transform="translate(-94,-134) scale(1,1)"><path fill="#C0C0C0" stroke="none" d="M 383 368 C 383 358.6111584 443.6654096 351 518.5 351 C 593.3345904 351 654 358.6111584 654 368 C 654 377.3888416 593.3345904 385 518.5 385 C 443.6654096 385 383 377.3888416 383 368 Z" opacity="0.2"></path></g><g transform="translate(-94,-134) scale(1,1)"><path fill="#ffffff" stroke="none" d="M 376 361 C 376 351.6111584 436.6654096 344 511.5 344 C 586.3345904 344 647 351.6111584 647 361 C 647 370.3888416 586.3345904 378 511.5 378 C 436.6654096 378 376 370.3888416 376 361 Z"></path></g><g transform="translate(-94,-134) scale(1,1)"><path fill="none" stroke="#000000" d="M 376 361 C 376 351.6111584 436.6654096 344 511.5 344 C 586.3345904 344 647 351.6111584 647 361 C 647 370.3888416 586.3345904 378 511.5 378 C 436.6654096 378 376 370.3888416 376 361 Z" stroke-miterlimit="10"></path></g><g transform="translate(-94,-134) scale(1,1)"><g><path fill="none" stroke="none"></path><text fill="#000000" stroke="none" font-family="Arial" font-size="13px" font-style="normal" font-weight="bold" text-decoration="none" x="425.5" y="368">Kasse mit Wechselgeld füllen</text></g></g><g transform="translate(-94,-134) scale(1,1)"><path fill="#C0C0C0" stroke="none" d="M 327 512 C 327 502.6111584 402.2161536 495 495 495 C 587.7838464 495 663 502.6111584 663 512 C 663 521.3888416 587.7838464 529 495 529 C 402.2161536 529 327 521.3888416 327 512 Z" opacity="0.2"></path></g><g transform="translate(-94,-134) scale(1,1)"><path fill="#ffffff" stroke="none" d="M 320 505 C 320 495.6111584 395.2161536 488 488 488 C 580.7838464 488 656 495.6111584 656 505 C 656 514.3888416 580.7838464 522 488 522 C 395.2161536 522 320 514.3888416 320 505 Z"></path></g><g transform="translate(-94,-134) scale(1,1)"><path fill="none" stroke="#000000" d="M 320 505 C 320 495.6111584 395.2161536 488 488 488 C 580.7838464 488 656 495.6111584 656 505 C 656 514.3888416 580.7838464 522 488 522 C 395.2161536 522 320 514.3888416 320 505 Z" stroke-miterlimit="10"></path></g><g transform="translate(-94,-134) scale(1,1)"><g><path fill="none" stroke="none"></path><text fill="#000000" stroke="none" font-family="Arial" font-size="13px" font-style="normal" font-weight="bold" text-decoration="none" x="382" y="512">Verkaufserfolg von Produkt ermitteln</text></g></g><g transform="translate(-94,-134) scale(1,1)"><path fill="none" stroke="#000000" d="M 154 342 L 199 340" stroke-miterlimit="10"></path></g><g transform="translate(-94,-134) scale(1,1)"><path fill="none" stroke="#000000" d="M 695 317 L 555 251" stroke-miterlimit="10"></path></g><g transform="translate(-94,-134) scale(1,1)"><path fill="none" stroke="#000000" d="M 695 377 L 517 487" stroke-miterlimit="10"></path></g><g transform="translate(-94,-134) scale(1,1)"><path fill="none" stroke="#000000" d="M 695 347 L 648 351" stroke-miterlimit="10"></path></g><g transform="translate(-94,-134) scale(1,1)"><path fill="#C0C0C0" stroke="none" d="M 215 440 C 215 430.6111584 244.101488 423 280 423 C 315.898512 423 345 430.6111584 345 440 C 345 449.3888416 315.898512 457 280 457 C 244.101488 457 215 449.3888416 215 440 Z" opacity="0.2"></path></g><g transform="translate(-94,-134) scale(1,1)"><path fill="#ffffff" stroke="none" d="M 208 433 C 208 423.6111584 237.101488 416 273 416 C 308.898512 416 338 423.6111584 338 433 C 338 442.3888416 308.898512 450 273 450 C 237.101488 450 208 442.3888416 208 433 Z"></path></g><g transform="translate(-94,-134) scale(1,1)"><path fill="none" stroke="#000000" d="M 208 433 C 208 423.6111584 237.101488 416 273 416 C 308.898512 416 338 423.6111584 338 433 C 338 442.3888416 308.898512 450 273 450 C 237.101488 450 208 442.3888416 208 433 Z" stroke-miterlimit="10"></path></g><g transform="translate(-94,-134) scale(1,1)"><g><path fill="none" stroke="none"></path><text fill="#000000" stroke="none" font-family="Arial" font-size="13px" font-style="normal" font-weight="bold" text-decoration="none" x="234.5" y="440">Geld einerfen</text></g></g><g transform="translate(-94,-134) scale(1,1)"><path fill="none" stroke="#000000" d="M 262 355 L 271 415" stroke-miterlimit="10" stroke-dasharray="3"></path></g><g transform="translate(-94,-134) scale(1,1)"><path fill="none" stroke="#000000" d="M 265.3295190716684 405.57420316146016 L 271 415 L 273.655409345606 404.3253196203695" stroke-miterlimit="10"></path></g><g transform="translate(-94,-134) scale(1,1)"><g><path fill="none" stroke="none"></path><text fill="#000000" stroke="none" font-family="Arial" font-size="13px" font-style="normal" font-weight="normal" text-decoration="none" x="267.5" y="386.5">«include»</text></g></g><g transform="translate(-94,-134) scale(1,1)"><path fill="#C0C0C0" stroke="none" d="M 215 240 C 215 230.6111584 248.57864 223 290 223 C 331.42136 223 365 230.6111584 365 240 C 365 249.3888416 331.42136 257 290 257 C 248.57864 257 215 249.3888416 215 240 Z" opacity="0.2"></path></g><g transform="translate(-94,-134) scale(1,1)"><path fill="#ffffff" stroke="none" d="M 208 233 C 208 223.6111584 241.57864 216 283 216 C 324.42136 216 358 223.6111584 358 233 C 358 242.3888416 324.42136 250 283 250 C 241.57864 250 208 242.3888416 208 233 Z"></path></g><g transform="translate(-94,-134) scale(1,1)"><path fill="none" stroke="#000000" d="M 208 233 C 208 223.6111584 241.57864 216 283 216 C 324.42136 216 358 223.6111584 358 233 C 358 242.3888416 324.42136 250 283 250 C 241.57864 250 208 242.3888416 208 233 Z" stroke-miterlimit="10"></path></g><g transform="translate(-94,-134) scale(1,1)"><g><path fill="none" stroke="none"></path><text fill="#000000" stroke="none" font-family="Arial" font-size="13px" font-style="normal" font-weight="bold" text-decoration="none" x="238.5" y="240">Produkt wählen</text></g></g><g transform="translate(-94,-134) scale(1,1)"><path fill="none" stroke="#000000" d="M 264 319 L 279 251" stroke-miterlimit="10" stroke-dasharray="3"></path></g><g transform="translate(-94,-134) scale(1,1)"><path fill="none" stroke="#000000" d="M 280.9215558693503 261.8308643718295 L 279 251 L 272.70016754221405 260.0173228290788" stroke-miterlimit="10"></path></g><g transform="translate(-94,-134) scale(1,1)"><g><path fill="none" stroke="none"></path><text fill="#000000" stroke="none" font-family="Arial" font-size="13px" font-style="normal" font-weight="normal" text-decoration="none" x="213.5" y="284.5">«include»</text></g></g></g></svg>