<?xml version="1.0" encoding="UTF-8" standalone="no"?>
<!DOCTYPE svg PUBLIC "-//W3C//DTD SVG 1.1//EN"
 "http://www.w3.org/Graphics/SVG/1.1/DTD/svg11.dtd">
<!-- Generated by graphviz version 2.40.1 (20161225.0304)
 -->
<!-- Title: T Pages: 1 -->
<svg width="503pt" height="44pt"
 viewBox="0.00 0.00 502.68 44.00" xmlns="http://www.w3.org/2000/svg" xmlns:xlink="http://www.w3.org/1999/xlink">
<g id="graph0" class="graph" transform="scale(1 1) rotate(0) translate(4 40)">
<title>T</title>
<polygon fill="#ffffff" stroke="transparent" points="-4,4 -4,-40 498.6828,-40 498.6828,4 -4,4"/>
<!-- wc &#45;w -->
<g id="node1" class="node">
<title>wc &#45;w</title>
<polygon fill="none" stroke="#000000" points="170.3933,-36 112.3933,-36 112.3933,0 170.3933,0 170.3933,-36"/>
<text text-anchor="middle" x="141.3933" y="-14.3" font-family="Courier,monospace" font-size="14.00" fill="#000000">wc &#45;w</text>
</g>
<!-- sort &#45;n &#45;r -->
<g id="node2" class="node">
<title>sort &#45;n &#45;r</title>
<polygon fill="none" stroke="#000000" points="339.3933,-36 240.3933,-36 240.3933,0 339.3933,0 339.3933,-36"/>
<text text-anchor="middle" x="289.8933" y="-14.3" font-family="Courier,monospace" font-size="14.00" fill="#000000">sort &#45;n &#45;r</text>
</g>
<!-- wc &#45;w&#45;&gt;sort &#45;n &#45;r -->
<g id="edge2" class="edge">
<title>wc &#45;w&#45;&gt;sort &#45;n &#45;r</title>
<path fill="none" stroke="#000000" d="M170.7321,-18C187.6526,-18 209.5573,-18 229.9623,-18"/>
<polygon fill="#000000" stroke="#000000" points="230.1449,-21.5001 240.1449,-18 230.1449,-14.5001 230.1449,-21.5001"/>
<text text-anchor="middle" x="205.3933" y="-21.8" font-family="Courier,monospace" font-size="14.00" fill="#000000">Pipe</text>
</g>
<!-- [Ausgabe] -->
<g id="node4" class="node">
<title>[Ausgabe]</title>
<ellipse fill="none" stroke="#000000" cx="435.5381" cy="-18" rx="59.2899" ry="18"/>
<text text-anchor="middle" x="435.5381" y="-14.3" font-family="Courier,monospace" font-size="14.00" fill="#000000">[Ausgabe]</text>
</g>
<!-- sort &#45;n &#45;r&#45;&gt;[Ausgabe] -->
<g id="edge3" class="edge">
<title>sort &#45;n &#45;r&#45;&gt;[Ausgabe]</title>
<path fill="none" stroke="#000000" d="M339.6086,-18C348.1705,-18 357.2079,-18 366.1751,-18"/>
<polygon fill="#000000" stroke="#000000" points="366.2406,-21.5001 376.2405,-18 366.2405,-14.5001 366.2406,-21.5001"/>
</g>
<!-- *.txt -->
<g id="node3" class="node">
<title>*.txt</title>
<ellipse fill="none" stroke="#000000" cx="37.6967" cy="-18" rx="37.8943" ry="18"/>
<text text-anchor="middle" x="37.6967" y="-14.3" font-family="Courier,monospace" font-size="14.00" fill="#000000">*.txt</text>
</g>
<!-- *.txt&#45;&gt;wc &#45;w -->
<g id="edge1" class="edge">
<title>*.txt&#45;&gt;wc &#45;w</title>
<path fill="none" stroke="#000000" d="M75.4269,-18C84.1675,-18 93.4876,-18 102.2859,-18"/>
<polygon fill="#000000" stroke="#000000" points="102.3087,-21.5001 112.3087,-18 102.3086,-14.5001 102.3087,-21.5001"/>
</g>
</g>
</svg>
