<?xml version="1.0" encoding="UTF-8" standalone="no"?>
<!DOCTYPE svg PUBLIC "-//W3C//DTD SVG 1.1//EN"
 "http://www.w3.org/Graphics/SVG/1.1/DTD/svg11.dtd">
<!-- Generated by graphviz version 2.40.1 (20161225.0304)
 -->
<!-- Title: hightech Pages: 1 -->
<svg width="1137pt" height="513pt"
 viewBox="0.00 0.00 1137.00 513.25" xmlns="http://www.w3.org/2000/svg" xmlns:xlink="http://www.w3.org/1999/xlink">
<g id="graph0" class="graph" transform="scale(1 1) rotate(0) translate(4 509.25)">
<title>hightech</title>
<polygon fill="#ffffff" stroke="transparent" points="-4,4 -4,-509.25 1133,-509.25 1133,4 -4,4"/>
<g id="clust1" class="cluster">
<title>cluster_rechenzentrum</title>
</g>
<g id="clust2" class="cluster">
<title>cluster_sensorik</title>
<polygon fill="none" stroke="#000000" stroke-dasharray="1,5" points="677,-90 677,-152 1121,-152 1121,-90 677,-90"/>
</g>
<g id="clust3" class="cluster">
<title>cluster_kraftwerk</title>
</g>
<g id="clust4" class="cluster">
<title>cluster_maschinenraum</title>
<polygon fill="none" stroke="#000000" stroke-dasharray="1,5" points="202,-172 202,-398 394,-398 394,-172 202,-172"/>
</g>
<!-- Smartphone&#45;App -->
<g id="node1" class="node">
<title>Smartphone&#45;App</title>
<polygon fill="none" stroke="#000000" points="156,-226 0,-226 0,-222 -4,-222 -4,-218 0,-218 0,-188 -4,-188 -4,-184 0,-184 0,-180 156,-180 156,-226"/>
<polyline fill="none" stroke="#000000" points="0,-222 4,-222 4,-218 0,-218 "/>
<polyline fill="none" stroke="#000000" points="0,-188 4,-188 4,-184 0,-184 "/>
<text text-anchor="middle" x="78" y="-199.2" font-family="Open Sans" font-size="16.00" fill="#000000">Smartphone&#45;App</text>
</g>
<!-- WiFi -->
<g id="node2" class="node">
<title>WiFi</title>
<polygon fill="none" stroke="#000000" points="131.5,-144 72.5,-144 72.5,-140 68.5,-140 68.5,-136 72.5,-136 72.5,-106 68.5,-106 68.5,-102 72.5,-102 72.5,-98 131.5,-98 131.5,-144"/>
<polyline fill="none" stroke="#000000" points="72.5,-140 76.5,-140 76.5,-136 72.5,-136 "/>
<polyline fill="none" stroke="#000000" points="72.5,-106 76.5,-106 76.5,-102 72.5,-102 "/>
<text text-anchor="middle" x="102" y="-117.2" font-family="Open Sans" font-size="16.00" fill="#000000">WiFi</text>
</g>
<!-- Smartphone&#45;App&#45;&gt;WiFi -->
<g id="edge1" class="edge">
<title>Smartphone&#45;App&#45;&gt;WiFi</title>
<path fill="none" stroke="#000000" d="M102,-179.7214C102,-168.547 102,-155.1979 102,-144.053"/>
</g>
<!-- Entwicklerboard -->
<g id="node9" class="node">
<title>Entwicklerboard</title>
<polygon fill="none" stroke="#000000" points="731.5,-62 586.5,-62 582.5,-58 582.5,-16 727.5,-16 731.5,-20 731.5,-62"/>
<polyline fill="none" stroke="#000000" points="727.5,-58 582.5,-58 "/>
<polyline fill="none" stroke="#000000" points="727.5,-58 727.5,-16 "/>
<polyline fill="none" stroke="#000000" points="727.5,-58 731.5,-62 "/>
<text text-anchor="middle" x="657" y="-35.2" font-family="Open Sans" font-size="16.00" fill="#000000">Entwicklerboard</text>
</g>
<!-- WiFi&#45;&gt;Entwicklerboard -->
<g id="edge2" class="edge">
<title>WiFi&#45;&gt;Entwicklerboard</title>
<path fill="none" stroke="#000000" d="M102,-97.8228C102,-71.1564 102,-31 102,-31 102,-31 431.0762,-31 582.4384,-31"/>
</g>
<!-- Reifen -->
<g id="node3" class="node">
<title>Reifen</title>
<polygon fill="none" stroke="#000000" points="499.5,-390 424.5,-390 424.5,-386 420.5,-386 420.5,-382 424.5,-382 424.5,-352 420.5,-352 420.5,-348 424.5,-348 424.5,-344 499.5,-344 499.5,-390"/>
<polyline fill="none" stroke="#000000" points="424.5,-386 428.5,-386 428.5,-382 424.5,-382 "/>
<polyline fill="none" stroke="#000000" points="424.5,-352 428.5,-352 428.5,-348 424.5,-348 "/>
<text text-anchor="middle" x="462" y="-363.2" font-family="Open Sans" font-size="16.00" fill="#000000">Reifen</text>
</g>
<!-- Zahnriemen -->
<g id="node4" class="node">
<title>Zahnriemen</title>
<polygon fill="none" stroke="#000000" points="521.5,-308 402.5,-308 402.5,-304 398.5,-304 398.5,-300 402.5,-300 402.5,-270 398.5,-270 398.5,-266 402.5,-266 402.5,-262 521.5,-262 521.5,-308"/>
<polyline fill="none" stroke="#000000" points="402.5,-304 406.5,-304 406.5,-300 402.5,-300 "/>
<polyline fill="none" stroke="#000000" points="402.5,-270 406.5,-270 406.5,-266 402.5,-266 "/>
<text text-anchor="middle" x="462" y="-281.2" font-family="Open Sans" font-size="16.00" fill="#000000">Zahnriemen</text>
</g>
<!-- Reifen&#45;&gt;Zahnriemen -->
<g id="edge3" class="edge">
<title>Reifen&#45;&gt;Zahnriemen</title>
<path fill="none" stroke="#000000" d="M462,-343.7214C462,-332.547 462,-319.1979 462,-308.053"/>
</g>
<!-- Schrittmotor(en) -->
<g id="node14" class="node">
<title>Schrittmotor(en)</title>
<polygon fill="none" stroke="#000000" points="374,-220 236,-220 236,-186 374,-186 386,-203 374,-220"/>
<text text-anchor="middle" x="311" y="-199.2" font-family="Open Sans" font-size="16.00" fill="#000000">Schrittmotor(en)</text>
</g>
<!-- Zahnriemen&#45;&gt;Schrittmotor(en) -->
<g id="edge4" class="edge">
<title>Zahnriemen&#45;&gt;Schrittmotor(en)</title>
<path fill="none" stroke="#000000" d="M402.1855,-285C386.8047,-285 374.5,-285 374.5,-285 374.5,-285 374.5,-250.5214 374.5,-226.2786"/>
</g>
<!-- Geschwindigkeitsregler -->
<g id="node5" class="node">
<title>Geschwindigkeitsregler</title>
<polygon fill="none" stroke="#000000" points="521,-144 321,-144 321,-140 317,-140 317,-136 321,-136 321,-106 317,-106 317,-102 321,-102 321,-98 521,-98 521,-144"/>
<polyline fill="none" stroke="#000000" points="321,-140 325,-140 325,-136 321,-136 "/>
<polyline fill="none" stroke="#000000" points="321,-106 325,-106 325,-102 321,-102 "/>
<text text-anchor="middle" x="421" y="-117.2" font-family="Open Sans" font-size="16.00" fill="#000000">Geschwindigkeitsregler</text>
</g>
<!-- Geschwindigkeitsregler&#45;&gt;Entwicklerboard -->
<g id="edge6" class="edge">
<title>Geschwindigkeitsregler&#45;&gt;Entwicklerboard</title>
<path fill="none" stroke="#000000" d="M521.0793,-121C564.4521,-121 605.5,-121 605.5,-121 605.5,-121 605.5,-86.5214 605.5,-62.2786"/>
</g>
<!-- Druckluft -->
<g id="node6" class="node">
<title>Druckluft</title>
<polygon fill="none" stroke="#000000" points="194,-308 98,-308 98,-304 94,-304 94,-300 98,-300 98,-270 94,-270 94,-266 98,-266 98,-262 194,-262 194,-308"/>
<polyline fill="none" stroke="#000000" points="98,-304 102,-304 102,-300 98,-300 "/>
<polyline fill="none" stroke="#000000" points="98,-270 102,-270 102,-266 98,-266 "/>
<text text-anchor="middle" x="146" y="-281.2" font-family="Open Sans" font-size="16.00" fill="#000000">Druckluft</text>
</g>
<!-- Druckluft&#45;&gt;Entwicklerboard -->
<g id="edge9" class="edge">
<title>Druckluft&#45;&gt;Entwicklerboard</title>
<path fill="none" stroke="#000000" d="M175,-261.6485C175,-201.5099 175,-46 175,-46 175,-46 447.1851,-46 582.4803,-46"/>
</g>
<!-- Spannungswandler -->
<g id="node7" class="node">
<title>Spannungswandler</title>
<polygon fill="none" stroke="#000000" points="716,-390 544,-390 544,-386 540,-386 540,-382 544,-382 544,-352 540,-352 540,-348 544,-348 544,-344 716,-344 716,-390"/>
<polyline fill="none" stroke="#000000" points="544,-386 548,-386 548,-382 544,-382 "/>
<polyline fill="none" stroke="#000000" points="544,-352 548,-352 548,-348 544,-348 "/>
<text text-anchor="middle" x="630" y="-363.2" font-family="Open Sans" font-size="16.00" fill="#000000">Spannungswandler</text>
</g>
<!-- Schalter -->
<g id="node8" class="node">
<title>Schalter</title>
<polygon fill="none" stroke="#000000" points="628.5,-308 539.5,-308 539.5,-304 535.5,-304 535.5,-300 539.5,-300 539.5,-270 535.5,-270 535.5,-266 539.5,-266 539.5,-262 628.5,-262 628.5,-308"/>
<polyline fill="none" stroke="#000000" points="539.5,-304 543.5,-304 543.5,-300 539.5,-300 "/>
<polyline fill="none" stroke="#000000" points="539.5,-270 543.5,-270 543.5,-266 539.5,-266 "/>
<text text-anchor="middle" x="584" y="-281.2" font-family="Open Sans" font-size="16.00" fill="#000000">Schalter</text>
</g>
<!-- Spannungswandler&#45;&gt;Schalter -->
<g id="edge14" class="edge">
<title>Spannungswandler&#45;&gt;Schalter</title>
<path fill="none" stroke="#000000" d="M586.25,-343.7214C586.25,-332.547 586.25,-319.1979 586.25,-308.053"/>
</g>
<!-- Spannungswandler&#45;&gt;Entwicklerboard -->
<g id="edge13" class="edge">
<title>Spannungswandler&#45;&gt;Entwicklerboard</title>
<path fill="none" stroke="#000000" d="M656.75,-343.9357C656.75,-283.7121 656.75,-122.2339 656.75,-62.0388"/>
</g>
<!-- Schalter&#45;&gt;Schrittmotor(en) -->
<g id="edge15" class="edge">
<title>Schalter&#45;&gt;Schrittmotor(en)</title>
<path fill="none" stroke="#000000" d="M561,-261.7214C561,-237.4786 561,-203 561,-203 561,-203 459.6473,-203 386.0082,-203"/>
</g>
<!-- Bildkamera -->
<g id="node10" class="node">
<title>Bildkamera</title>
<polygon fill="none" stroke="#000000" points="1094.5,-138 999.5,-138 999.5,-98 1017.5,-98 1017.5,-104 1094.5,-104 1094.5,-98 1112.5,-121 1094.5,-144 1094.5,-138"/>
<text text-anchor="middle" x="1056" y="-117.2" font-family="Open Sans" font-size="16.00" fill="#000000">Bildkamera</text>
</g>
<!-- Bildkamera&#45;&gt;Entwicklerboard -->
<g id="edge7" class="edge">
<title>Bildkamera&#45;&gt;Entwicklerboard</title>
<path fill="none" stroke="#000000" d="M1056,-97.8228C1056,-71.1564 1056,-31 1056,-31 1056,-31 847.0659,-31 731.5808,-31"/>
</g>
<!-- Ultraschallsensor -->
<g id="node11" class="node">
<title>Ultraschallsensor</title>
<polygon fill="none" stroke="#000000" points="963,-138 825,-138 825,-98 843,-98 843,-104 963,-104 963,-98 981,-121 963,-144 963,-138"/>
<text text-anchor="middle" x="903" y="-117.2" font-family="Open Sans" font-size="16.00" fill="#000000">Ultraschallsensor</text>
</g>
<!-- Ultraschallsensor&#45;&gt;Entwicklerboard -->
<g id="edge16" class="edge">
<title>Ultraschallsensor&#45;&gt;Entwicklerboard</title>
<path fill="none" stroke="#000000" d="M903,-97.6807C903,-75.6642 903,-46 903,-46 903,-46 804.1846,-46 731.8101,-46"/>
</g>
<!-- Drucksensor -->
<g id="node12" class="node">
<title>Drucksensor</title>
<polygon fill="none" stroke="#000000" points="789,-138 685,-138 685,-98 703,-98 703,-104 789,-104 789,-98 807,-121 789,-144 789,-138"/>
<text text-anchor="middle" x="746" y="-117.2" font-family="Open Sans" font-size="16.00" fill="#000000">Drucksensor</text>
</g>
<!-- Drucksensor&#45;&gt;Entwicklerboard -->
<g id="edge17" class="edge">
<title>Drucksensor&#45;&gt;Entwicklerboard</title>
<path fill="none" stroke="#000000" d="M708.25,-97.7214C708.25,-86.547 708.25,-73.1979 708.25,-62.053"/>
</g>
<!-- Lithium&#45;Polymer&#45;Akku -->
<g id="node13" class="node">
<title>Lithium&#45;Polymer&#45;Akku</title>
<path fill="none" stroke="#000000" d="M726.5,-483.6027C726.5,-486.788 683.2472,-489.3755 630,-489.3755 576.7528,-489.3755 533.5,-486.788 533.5,-483.6027 533.5,-483.6027 533.5,-431.6473 533.5,-431.6473 533.5,-428.462 576.7528,-425.8745 630,-425.8745 683.2472,-425.8745 726.5,-428.462 726.5,-431.6473 726.5,-431.6473 726.5,-483.6027 726.5,-483.6027"/>
<path fill="none" stroke="#000000" d="M726.5,-483.6027C726.5,-480.4173 683.2472,-477.8299 630,-477.8299 576.7528,-477.8299 533.5,-480.4173 533.5,-483.6027"/>
<text text-anchor="middle" x="630" y="-453.825" font-family="Open Sans" font-size="16.00" fill="#000000">Lithium&#45;Polymer&#45;Akku</text>
</g>
<!-- Lithium&#45;Polymer&#45;Akku&#45;&gt;Spannungswandler -->
<g id="edge12" class="edge">
<title>Lithium&#45;Polymer&#45;Akku&#45;&gt;Spannungswandler</title>
<path fill="none" stroke="#000000" d="M630,-425.9288C630,-414.1891 630,-401.1051 630,-390.2536"/>
</g>
<!-- Schrittmotor(en)&#45;&gt;Geschwindigkeitsregler -->
<g id="edge5" class="edge">
<title>Schrittmotor(en)&#45;&gt;Geschwindigkeitsregler</title>
<path fill="none" stroke="#000000" d="M353.5,-179.7214C353.5,-168.547 353.5,-155.1979 353.5,-144.053"/>
</g>
<!-- Softrobotics&#45;Greifer -->
<g id="node15" class="node">
<title>Softrobotics&#45;Greifer</title>
<polygon fill="none" stroke="#000000" points="373.5,-384 210.5,-384 210.5,-350 373.5,-350 385.5,-367 373.5,-384"/>
<text text-anchor="middle" x="298" y="-363.2" font-family="Open Sans" font-size="16.00" fill="#000000">Softrobotics&#45;Greifer</text>
</g>
<!-- Softrobotics&#45;Greifer&#45;&gt;Druckluft -->
<g id="edge8" class="edge">
<title>Softrobotics&#45;Greifer&#45;&gt;Druckluft</title>
<path fill="none" stroke="#000000" d="M223.25,-343.7214C223.25,-319.4786 223.25,-285 223.25,-285 223.25,-285 209.7546,-285 194.0451,-285"/>
</g>
<!-- Seiltrommel -->
<g id="node16" class="node">
<title>Seiltrommel</title>
<polygon fill="none" stroke="#000000" points="351.5,-302 244.5,-302 244.5,-268 351.5,-268 363.5,-285 351.5,-302"/>
<text text-anchor="middle" x="304" y="-281.2" font-family="Open Sans" font-size="16.00" fill="#000000">Seiltrommel</text>
</g>
<!-- Softrobotics&#45;Greifer&#45;&gt;Seiltrommel -->
<g id="edge10" class="edge">
<title>Softrobotics&#45;Greifer&#45;&gt;Seiltrommel</title>
<path fill="none" stroke="#000000" d="M304,-343.7214C304,-332.547 304,-319.1979 304,-308.053"/>
</g>
<!-- Seiltrommel&#45;&gt;Schrittmotor(en) -->
<g id="edge11" class="edge">
<title>Seiltrommel&#45;&gt;Schrittmotor(en)</title>
<path fill="none" stroke="#000000" d="M304,-261.7214C304,-250.547 304,-237.1979 304,-226.053"/>
</g>
</g>
</svg>
