<?xml version="1.0" encoding="UTF-8" standalone="no"?><svg xmlns="http://www.w3.org/2000/svg" xmlns:xlink="http://www.w3.org/1999/xlink" contentScriptType="application/ecmascript" contentStyleType="text/css" height="750px" preserveAspectRatio="none" style="width:1025px;height:750px;" version="1.1" viewBox="0 0 1025 750" width="1025px" zoomAndPan="magnify"><defs><filter height="300%" id="f1k4ughl3uvzuv" width="300%" x="-1" y="-1"><feGaussianBlur result="blurOut" stdDeviation="2.0"/><feColorMatrix in="blurOut" result="blurOut2" type="matrix" values="0 0 0 0 0 0 0 0 0 0 0 0 0 0 0 0 0 0 .4 0"/><feOffset dx="4.0" dy="4.0" in="blurOut2" result="blurOut3"/><feBlend in="SourceGraphic" in2="blurOut3" mode="normal"/></filter></defs><g><!--cluster silisloth--><polygon fill="#FFFFFF" filter="url(#f1k4ughl3uvzuv)" points="14,16,74,16,81,41.0654,1003,41.0654,1003,738,14,738,14,16" style="stroke: #000000; stroke-width: 1.5;"/><line style="stroke: #000000; stroke-width: 1.5;" x1="14" x2="81" y1="41.0654" y2="41.0654"/><text fill="#000000" font-family="Open Sans" font-size="14" font-weight="bold" lengthAdjust="spacingAndGlyphs" textLength="54" x="18" y="32.9639">silisloth</text><!--class Brain--><rect fill="#F8F8F8" filter="url(#f1k4ughl3uvzuv)" height="167.8398" id="Brain" style="stroke: #383838; stroke-width: 1.5;" width="161" x="393.5" y="46"/><ellipse cx="454.75" cy="62" fill="#C2C2C2" rx="11" ry="11" style="stroke: #383838; stroke-width: 1.0;"/><path d="M457.7188,67.6406 Q457.1406,67.9375 456.5,68.0859 Q455.8594,68.2344 455.1563,68.2344 Q452.6563,68.2344 451.3359,66.5859 Q450.0156,64.9375 450.0156,61.8125 Q450.0156,58.6875 451.3359,57.0313 Q452.6563,55.375 455.1563,55.375 Q455.8594,55.375 456.5078,55.5313 Q457.1563,55.6875 457.7188,55.9844 L457.7188,58.7031 Q457.0938,58.125 456.5,57.8516 Q455.9063,57.5781 455.2813,57.5781 Q453.9375,57.5781 453.25,58.6484 Q452.5625,59.7188 452.5625,61.8125 Q452.5625,63.9063 453.25,64.9766 Q453.9375,66.0469 455.2813,66.0469 Q455.9063,66.0469 456.5,65.7734 Q457.0938,65.5 457.7188,64.9219 L457.7188,67.6406 Z "/><text fill="#000000" font-family="Open Sans" font-size="12" lengthAdjust="spacingAndGlyphs" textLength="30" x="475.25" y="66.6553">Brain</text><line style="stroke: #383838; stroke-width: 1.5;" x1="394.5" x2="553.5" y1="78" y2="78"/><rect fill="none" height="6" style="stroke: #595959; stroke-width: 1.0;" width="6" x="401.5" y="87.99"/><text fill="#000000" font-family="Open Sans" font-size="11" lengthAdjust="spacingAndGlyphs" textLength="86" x="413.5" y="93.7573">arduino:Arduino</text><rect fill="none" height="6" style="stroke: #595959; stroke-width: 1.0;" width="6" x="401.5" y="102.97"/><text fill="#000000" font-family="Open Sans" font-size="11" lengthAdjust="spacingAndGlyphs" textLength="103" x="413.5" y="108.7373">eye:TargetDetection</text><rect fill="none" height="6" style="stroke: #595959; stroke-width: 1.0;" width="6" x="401.5" y="117.95"/><text fill="#000000" font-family="Open Sans" font-size="11" lengthAdjust="spacingAndGlyphs" textLength="84" x="413.5" y="123.7173">server:TcpServer</text><rect fill="none" height="6" style="stroke: #595959; stroke-width: 1.0;" width="6" x="401.5" y="132.9299"/><text fill="#000000" font-family="Open Sans" font-size="11" lengthAdjust="spacingAndGlyphs" textLength="135" x="413.5" y="138.6973">sensor_x:UltrasonicSensor</text><rect fill="none" height="6" style="stroke: #595959; stroke-width: 1.0;" width="6" x="401.5" y="147.9099"/><text fill="#000000" font-family="Open Sans" font-size="11" lengthAdjust="spacingAndGlyphs" textLength="134" x="413.5" y="153.6772">sensor_z:UltrasonicSensor</text><rect fill="none" height="6" style="stroke: #595959; stroke-width: 1.0;" width="6" x="401.5" y="162.8899"/><text fill="#000000" font-family="Open Sans" font-size="11" lengthAdjust="spacingAndGlyphs" textLength="115" x="413.5" y="168.6572">end_switch:EndSwitch</text><rect fill="none" height="6" style="stroke: #595959; stroke-width: 1.0;" width="6" x="401.5" y="177.8699"/><text fill="#000000" font-family="Open Sans" font-size="11" lengthAdjust="spacingAndGlyphs" textLength="70" x="413.5" y="183.6372">logger:Logger</text><line style="stroke: #383838; stroke-width: 1.0;" x1="394.5" x2="553.5" y1="190.8599" y2="190.8599"/><ellipse cx="404.5" cy="203.8499" fill="#A6A6A6" rx="3" ry="3" style="stroke: #545454; stroke-width: 1.0;"/><text fill="#000000" font-family="Open Sans" font-size="11" lengthAdjust="spacingAndGlyphs" textLength="29" x="413.5" y="206.6172">start()</text><!--class Arduino--><rect fill="#F8F8F8" filter="url(#f1k4ughl3uvzuv)" height="182.8198" id="Arduino" style="stroke: #383838; stroke-width: 1.5;" width="168" x="22" y="274"/><ellipse cx="79.75" cy="290" fill="#C2C2C2" rx="11" ry="11" style="stroke: #383838; stroke-width: 1.0;"/><path d="M82.7188,295.6406 Q82.1406,295.9375 81.5,296.0859 Q80.8594,296.2344 80.1563,296.2344 Q77.6563,296.2344 76.3359,294.5859 Q75.0156,292.9375 75.0156,289.8125 Q75.0156,286.6875 76.3359,285.0313 Q77.6563,283.375 80.1563,283.375 Q80.8594,283.375 81.5078,283.5313 Q82.1563,283.6875 82.7188,283.9844 L82.7188,286.7031 Q82.0938,286.125 81.5,285.8516 Q80.9063,285.5781 80.2813,285.5781 Q78.9375,285.5781 78.25,286.6484 Q77.5625,287.7188 77.5625,289.8125 Q77.5625,291.9063 78.25,292.9766 Q78.9375,294.0469 80.2813,294.0469 Q80.9063,294.0469 81.5,293.7734 Q82.0938,293.5 82.7188,292.9219 L82.7188,295.6406 Z "/><text fill="#000000" font-family="Open Sans" font-size="12" lengthAdjust="spacingAndGlyphs" textLength="44" x="100.25" y="294.6553">Arduino</text><line style="stroke: #383838; stroke-width: 1.5;" x1="23" x2="189" y1="306" y2="306"/><rect fill="none" height="6" style="stroke: #595959; stroke-width: 1.0;" width="6" x="30" y="315.99"/><text fill="#000000" font-family="Open Sans" font-size="11" lengthAdjust="spacingAndGlyphs" textLength="66" x="42" y="321.7573">device:String</text><line style="stroke: #383838; stroke-width: 1.0;" x1="23" x2="189" y1="328.98" y2="328.98"/><ellipse cx="33" cy="341.97" fill="#A6A6A6" rx="3" ry="3" style="stroke: #545454; stroke-width: 1.0;"/><text fill="#000000" font-family="Open Sans" font-size="11" lengthAdjust="spacingAndGlyphs" textLength="76" x="42" y="344.7373">__init__(device)</text><ellipse cx="33" cy="356.95" fill="#A6A6A6" rx="3" ry="3" style="stroke: #545454; stroke-width: 1.0;"/><text fill="#000000" font-family="Open Sans" font-size="11" lengthAdjust="spacingAndGlyphs" textLength="120" x="42" y="359.7173">freight_ready():Boolean</text><ellipse cx="33" cy="371.9299" fill="#A6A6A6" rx="3" ry="3" style="stroke: #545454; stroke-width: 1.0;"/><text fill="#000000" font-family="Open Sans" font-size="11" lengthAdjust="spacingAndGlyphs" textLength="55" x="42" y="374.6973">move_off()</text><ellipse cx="33" cy="386.9099" fill="#A6A6A6" rx="3" ry="3" style="stroke: #545454; stroke-width: 1.0;"/><text fill="#000000" font-family="Open Sans" font-size="11" lengthAdjust="spacingAndGlyphs" textLength="118" x="42" y="389.6772">pick_up(height:Integer)</text><ellipse cx="33" cy="401.8899" fill="#A6A6A6" rx="3" ry="3" style="stroke: #545454; stroke-width: 1.0;"/><text fill="#000000" font-family="Open Sans" font-size="11" lengthAdjust="spacingAndGlyphs" textLength="59" x="42" y="404.6572">decelerate()</text><ellipse cx="33" cy="416.8699" fill="#A6A6A6" rx="3" ry="3" style="stroke: #545454; stroke-width: 1.0;"/><text fill="#000000" font-family="Open Sans" font-size="11" lengthAdjust="spacingAndGlyphs" textLength="142" x="42" y="419.6372">drop_freight(height:Integer)</text><ellipse cx="33" cy="431.8499" fill="#A6A6A6" rx="3" ry="3" style="stroke: #545454; stroke-width: 1.0;"/><text fill="#000000" font-family="Open Sans" font-size="11" lengthAdjust="spacingAndGlyphs" textLength="26" x="42" y="434.6172">halt()</text><rect fill="#808080" height="6" style="stroke: #595959; stroke-width: 1.0;" width="6" x="30" y="443.8298"/><text fill="#000000" font-family="Open Sans" font-size="11" lengthAdjust="spacingAndGlyphs" textLength="87" x="42" y="449.5972">write(cmd:String)</text><!--class EndSwitch--><rect fill="#F8F8F8" filter="url(#f1k4ughl3uvzuv)" height="92.9399" id="EndSwitch" style="stroke: #383838; stroke-width: 1.5;" width="131" x="225.5" y="319"/><ellipse cx="259.4" cy="335" fill="#C2C2C2" rx="11" ry="11" style="stroke: #383838; stroke-width: 1.0;"/><path d="M262.3688,340.6406 Q261.7906,340.9375 261.15,341.0859 Q260.5094,341.2344 259.8063,341.2344 Q257.3063,341.2344 255.9859,339.5859 Q254.6656,337.9375 254.6656,334.8125 Q254.6656,331.6875 255.9859,330.0313 Q257.3063,328.375 259.8063,328.375 Q260.5094,328.375 261.1578,328.5313 Q261.8063,328.6875 262.3688,328.9844 L262.3688,331.7031 Q261.7438,331.125 261.15,330.8516 Q260.5563,330.5781 259.9313,330.5781 Q258.5875,330.5781 257.9,331.6484 Q257.2125,332.7188 257.2125,334.8125 Q257.2125,336.9063 257.9,337.9766 Q258.5875,339.0469 259.9313,339.0469 Q260.5563,339.0469 261.15,338.7734 Q261.7438,338.5 262.3688,337.9219 L262.3688,340.6406 Z "/><text fill="#000000" font-family="Open Sans" font-size="12" lengthAdjust="spacingAndGlyphs" textLength="57" x="277.6" y="339.6553">EndSwitch</text><line style="stroke: #383838; stroke-width: 1.5;" x1="226.5" x2="355.5" y1="351" y2="351"/><rect fill="none" height="6" style="stroke: #595959; stroke-width: 1.0;" width="6" x="233.5" y="360.99"/><text fill="#000000" font-family="Open Sans" font-size="11" lengthAdjust="spacingAndGlyphs" textLength="73" x="245.5" y="366.7573">gpio:RPi.GPIO</text><line style="stroke: #383838; stroke-width: 1.0;" x1="226.5" x2="355.5" y1="373.98" y2="373.98"/><ellipse cx="236.5" cy="386.97" fill="#A6A6A6" rx="3" ry="3" style="stroke: #545454; stroke-width: 1.0;"/><text fill="#000000" font-family="Open Sans" font-size="11" lengthAdjust="spacingAndGlyphs" textLength="66" x="245.5" y="389.7373">__init__(gpio)</text><ellipse cx="236.5" cy="401.95" fill="#A6A6A6" rx="3" ry="3" style="stroke: #545454; stroke-width: 1.0;"/><text fill="#000000" font-family="Open Sans" font-size="11" lengthAdjust="spacingAndGlyphs" textLength="105" x="245.5" y="404.7173">is_pressed():Boolean</text><!--class ImageAnalyzer--><rect fill="#F8F8F8" filter="url(#f1k4ughl3uvzuv)" height="212.7798" id="ImageAnalyzer" style="stroke: #383838; stroke-width: 1.5;" width="437" x="255.5" y="517"/><ellipse cx="427.75" cy="533" fill="#C2C2C2" rx="11" ry="11" style="stroke: #383838; stroke-width: 1.0;"/><path d="M430.7188,538.6406 Q430.1406,538.9375 429.5,539.0859 Q428.8594,539.2344 428.1563,539.2344 Q425.6563,539.2344 424.3359,537.5859 Q423.0156,535.9375 423.0156,532.8125 Q423.0156,529.6875 424.3359,528.0313 Q425.6563,526.375 428.1563,526.375 Q428.8594,526.375 429.5078,526.5313 Q430.1563,526.6875 430.7188,526.9844 L430.7188,529.7031 Q430.0938,529.125 429.5,528.8516 Q428.9063,528.5781 428.2813,528.5781 Q426.9375,528.5781 426.25,529.6484 Q425.5625,530.7188 425.5625,532.8125 Q425.5625,534.9063 426.25,535.9766 Q426.9375,537.0469 428.2813,537.0469 Q428.9063,537.0469 429.5,536.7734 Q430.0938,536.5 430.7188,535.9219 L430.7188,538.6406 Z "/><text fill="#000000" font-family="Open Sans" font-size="12" lengthAdjust="spacingAndGlyphs" textLength="84" x="448.25" y="537.6553">ImageAnalyzer</text><line style="stroke: #383838; stroke-width: 1.5;" x1="256.5" x2="691.5" y1="549" y2="549"/><rect fill="none" height="6" style="stroke: #595959; stroke-width: 1.0;" width="6" x="263.5" y="558.99"/><text fill="#000000" font-family="Open Sans" font-size="11" lengthAdjust="spacingAndGlyphs" textLength="195" x="275.5" y="564.7573">innermost_square_height_mm:Integer</text><line style="stroke: #383838; stroke-width: 1.0;" x1="256.5" x2="691.5" y1="571.98" y2="571.98"/><ellipse cx="266.5" cy="584.97" fill="#A6A6A6" rx="3" ry="3" style="stroke: #545454; stroke-width: 1.0;"/><text fill="#000000" font-family="Open Sans" font-size="11" lengthAdjust="spacingAndGlyphs" textLength="238" x="275.5" y="587.7373">__init__(innermost_square_height_mm:Integer)</text><ellipse cx="266.5" cy="599.95" fill="#A6A6A6" rx="3" ry="3" style="stroke: #545454; stroke-width: 1.0;"/><text fill="#000000" font-family="Open Sans" font-size="11" lengthAdjust="spacingAndGlyphs" text-decoration="underline" textLength="264" x="275.5" y="602.7173">determine_center(contours:numpy.array):Integer[2]</text><line style="stroke: #000000; stroke-width: 1.0;" x1="275.5" x2="539.5" y1="604.7173" y2="604.7173"/><ellipse cx="266.5" cy="614.9299" fill="#A6A6A6" rx="3" ry="3" style="stroke: #545454; stroke-width: 1.0;"/><text fill="#000000" font-family="Open Sans" font-size="11" lengthAdjust="spacingAndGlyphs" text-decoration="underline" textLength="333" x="275.5" y="617.6973">to_grayscale(image:numpy.array, threshold:Integer):numpy.array</text><line style="stroke: #000000; stroke-width: 1.0;" x1="275.5" x2="608.5" y1="619.6973" y2="619.6973"/><ellipse cx="266.5" cy="629.9099" fill="#A6A6A6" rx="3" ry="3" style="stroke: #545454; stroke-width: 1.0;"/><text fill="#000000" font-family="Open Sans" font-size="11" lengthAdjust="spacingAndGlyphs" text-decoration="underline" textLength="265" x="275.5" y="632.6772">is_square_shaped(countours:numpy.array):Boolean</text><line style="stroke: #000000; stroke-width: 1.0;" x1="275.5" x2="540.5" y1="634.6772" y2="634.6772"/><ellipse cx="266.5" cy="644.8899" fill="#A6A6A6" rx="3" ry="3" style="stroke: #545454; stroke-width: 1.0;"/><text fill="#000000" font-family="Open Sans" font-size="11" lengthAdjust="spacingAndGlyphs" text-decoration="underline" textLength="251" x="275.5" y="647.6572">has_neighbours(hierarchy:numpy.array):Boolean</text><line style="stroke: #000000; stroke-width: 1.0;" x1="275.5" x2="526.5" y1="649.6572" y2="649.6572"/><ellipse cx="266.5" cy="659.8699" fill="#A6A6A6" rx="3" ry="3" style="stroke: #545454; stroke-width: 1.0;"/><text fill="#000000" font-family="Open Sans" font-size="11" lengthAdjust="spacingAndGlyphs" text-decoration="underline" textLength="211" x="275.5" y="662.6372">find_smallest(cont_hier_list:numpy.array)</text><line style="stroke: #000000; stroke-width: 1.0;" x1="275.5" x2="486.5" y1="664.6372" y2="664.6372"/><ellipse cx="266.5" cy="674.8499" fill="#A6A6A6" rx="3" ry="3" style="stroke: #545454; stroke-width: 1.0;"/><text fill="#000000" font-family="Open Sans" font-size="11" lengthAdjust="spacingAndGlyphs" text-decoration="underline" textLength="166" x="275.5" y="677.6172">calc_middle(image:numpy.array)</text><line style="stroke: #000000; stroke-width: 1.0;" x1="275.5" x2="441.5" y1="679.6172" y2="679.6172"/><ellipse cx="266.5" cy="689.8298" fill="#A6A6A6" rx="3" ry="3" style="stroke: #545454; stroke-width: 1.0;"/><text fill="#000000" font-family="Open Sans" font-size="11" lengthAdjust="spacingAndGlyphs" textLength="260" x="275.5" y="692.5972">calculate_distance(image_bgr:numpy.array):Integer</text><ellipse cx="266.5" cy="704.8098" fill="#A6A6A6" rx="3" ry="3" style="stroke: #545454; stroke-width: 1.0;"/><text fill="#000000" font-family="Open Sans" font-size="11" lengthAdjust="spacingAndGlyphs" textLength="411" x="275.5" y="707.5771">estimate_distance_to_center(image:numpy.array, contours:numpy.array):Integer</text><ellipse cx="266.5" cy="719.7898" fill="#A6A6A6" rx="3" ry="3" style="stroke: #545454; stroke-width: 1.0;"/><text fill="#000000" font-family="Open Sans" font-size="11" lengthAdjust="spacingAndGlyphs" textLength="220" x="275.5" y="722.5571">has_square_area(image, contours):Boolean</text><!--class TargetDetection--><rect fill="#F8F8F8" filter="url(#f1k4ughl3uvzuv)" height="92.9399" id="TargetDetection" style="stroke: #383838; stroke-width: 1.5;" width="165" x="391.5" y="319"/><ellipse cx="425.4" cy="335" fill="#C2C2C2" rx="11" ry="11" style="stroke: #383838; stroke-width: 1.0;"/><path d="M428.3688,340.6406 Q427.7906,340.9375 427.15,341.0859 Q426.5094,341.2344 425.8063,341.2344 Q423.3063,341.2344 421.9859,339.5859 Q420.6656,337.9375 420.6656,334.8125 Q420.6656,331.6875 421.9859,330.0313 Q423.3063,328.375 425.8063,328.375 Q426.5094,328.375 427.1578,328.5313 Q427.8063,328.6875 428.3688,328.9844 L428.3688,331.7031 Q427.7438,331.125 427.15,330.8516 Q426.5563,330.5781 425.9313,330.5781 Q424.5875,330.5781 423.9,331.6484 Q423.2125,332.7188 423.2125,334.8125 Q423.2125,336.9063 423.9,337.9766 Q424.5875,339.0469 425.9313,339.0469 Q426.5563,339.0469 427.15,338.7734 Q427.7438,338.5 428.3688,337.9219 L428.3688,340.6406 Z "/><text fill="#000000" font-family="Open Sans" font-size="12" lengthAdjust="spacingAndGlyphs" textLength="91" x="443.6" y="339.6553">TargetDetection</text><line style="stroke: #383838; stroke-width: 1.5;" x1="392.5" x2="555.5" y1="351" y2="351"/><rect fill="none" height="6" style="stroke: #595959; stroke-width: 1.0;" width="6" x="399.5" y="360.99"/><text fill="#000000" font-family="Open Sans" font-size="11" lengthAdjust="spacingAndGlyphs" textLength="73" x="411.5" y="366.7573">cam:PiCamera</text><rect fill="none" height="6" style="stroke: #595959; stroke-width: 1.0;" width="6" x="399.5" y="375.97"/><text fill="#000000" font-family="Open Sans" font-size="11" lengthAdjust="spacingAndGlyphs" textLength="121" x="411.5" y="381.7373">analyzer:ImageAnalyzer</text><line style="stroke: #383838; stroke-width: 1.5;" x1="392.5" x2="555.5" y1="388.96" y2="388.96"/><ellipse cx="402.5" cy="401.95" fill="#A6A6A6" rx="3" ry="3" style="stroke: #545454; stroke-width: 1.0;"/><text fill="#000000" font-family="Open Sans" font-size="11" lengthAdjust="spacingAndGlyphs" textLength="139" x="411.5" y="404.7173">distance_to_target():Integer</text><!--class TcpServer--><rect fill="#F8F8F8" filter="url(#f1k4ughl3uvzuv)" height="152.8599" id="TcpServer" style="stroke: #383838; stroke-width: 1.5;" width="134" x="592" y="289"/><ellipse cx="627.25" cy="305" fill="#C2C2C2" rx="11" ry="11" style="stroke: #383838; stroke-width: 1.0;"/><path d="M630.2188,310.6406 Q629.6406,310.9375 629,311.0859 Q628.3594,311.2344 627.6563,311.2344 Q625.1563,311.2344 623.8359,309.5859 Q622.5156,307.9375 622.5156,304.8125 Q622.5156,301.6875 623.8359,300.0313 Q625.1563,298.375 627.6563,298.375 Q628.3594,298.375 629.0078,298.5313 Q629.6563,298.6875 630.2188,298.9844 L630.2188,301.7031 Q629.5938,301.125 629,300.8516 Q628.4063,300.5781 627.7813,300.5781 Q626.4375,300.5781 625.75,301.6484 Q625.0625,302.7188 625.0625,304.8125 Q625.0625,306.9063 625.75,307.9766 Q626.4375,309.0469 627.7813,309.0469 Q628.4063,309.0469 629,308.7734 Q629.5938,308.5 630.2188,307.9219 L630.2188,310.6406 Z "/><text fill="#000000" font-family="Open Sans" font-size="12" lengthAdjust="spacingAndGlyphs" textLength="57" x="645.75" y="309.6553">TcpServer</text><line style="stroke: #383838; stroke-width: 1.5;" x1="593" x2="725" y1="321" y2="321"/><rect fill="none" height="6" style="stroke: #595959; stroke-width: 1.0;" width="6" x="600" y="330.99"/><text fill="#000000" font-family="Open Sans" font-size="11" lengthAdjust="spacingAndGlyphs" textLength="43" x="612" y="336.7573">ip:String</text><rect fill="none" height="6" style="stroke: #595959; stroke-width: 1.0;" width="6" x="600" y="345.97"/><text fill="#000000" font-family="Open Sans" font-size="11" lengthAdjust="spacingAndGlyphs" textLength="61" x="612" y="351.7373">port:Integer</text><rect fill="none" height="6" style="stroke: #595959; stroke-width: 1.0;" width="6" x="600" y="360.95"/><text fill="#000000" font-family="Open Sans" font-size="11" lengthAdjust="spacingAndGlyphs" textLength="81" x="612" y="366.7173">buf_size:Integer</text><line style="stroke: #383838; stroke-width: 1.0;" x1="593" x2="725" y1="373.9399" y2="373.9399"/><ellipse cx="603" cy="386.9299" fill="#A6A6A6" rx="3" ry="3" style="stroke: #545454; stroke-width: 1.0;"/><text fill="#000000" font-family="Open Sans" font-size="11" lengthAdjust="spacingAndGlyphs" textLength="43" x="612" y="389.6973">__init()__</text><ellipse cx="603" cy="401.9099" fill="#A6A6A6" rx="3" ry="3" style="stroke: #545454; stroke-width: 1.0;"/><text fill="#000000" font-family="Open Sans" font-size="11" lengthAdjust="spacingAndGlyphs" textLength="32" x="612" y="404.6772">close()</text><ellipse cx="603" cy="416.8899" fill="#A6A6A6" rx="3" ry="3" style="stroke: #545454; stroke-width: 1.0;"/><text fill="#000000" font-family="Open Sans" font-size="11" lengthAdjust="spacingAndGlyphs" textLength="108" x="612" y="419.6572">send(message:String)</text><ellipse cx="603" cy="431.8699" fill="#A6A6A6" rx="3" ry="3" style="stroke: #545454; stroke-width: 1.0;"/><text fill="#000000" font-family="Open Sans" font-size="11" lengthAdjust="spacingAndGlyphs" textLength="75" x="612" y="434.6372">receive():String</text><!--class UltrasonicSensor--><rect fill="#F8F8F8" filter="url(#f1k4ughl3uvzuv)" height="167.8398" id="UltrasonicSensor" style="stroke: #383838; stroke-width: 1.5;" width="234" x="761" y="281.5"/><ellipse cx="825.75" cy="297.5" fill="#C2C2C2" rx="11" ry="11" style="stroke: #383838; stroke-width: 1.0;"/><path d="M828.7188,303.1406 Q828.1406,303.4375 827.5,303.5859 Q826.8594,303.7344 826.1563,303.7344 Q823.6563,303.7344 822.3359,302.0859 Q821.0156,300.4375 821.0156,297.3125 Q821.0156,294.1875 822.3359,292.5313 Q823.6563,290.875 826.1563,290.875 Q826.8594,290.875 827.5078,291.0313 Q828.1563,291.1875 828.7188,291.4844 L828.7188,294.2031 Q828.0938,293.625 827.5,293.3516 Q826.9063,293.0781 826.2813,293.0781 Q824.9375,293.0781 824.25,294.1484 Q823.5625,295.2188 823.5625,297.3125 Q823.5625,299.4063 824.25,300.4766 Q824.9375,301.5469 826.2813,301.5469 Q826.9063,301.5469 827.5,301.2734 Q828.0938,301 828.7188,300.4219 L828.7188,303.1406 Z "/><text fill="#000000" font-family="Open Sans" font-size="12" lengthAdjust="spacingAndGlyphs" textLength="96" x="846.25" y="302.1553">UltrasonicSensor</text><line style="stroke: #383838; stroke-width: 1.5;" x1="762" x2="994" y1="313.5" y2="313.5"/><rect fill="none" height="6" style="stroke: #595959; stroke-width: 1.0;" width="6" x="769" y="323.49"/><text fill="#000000" font-family="Open Sans" font-size="11" lengthAdjust="spacingAndGlyphs" textLength="73" x="781" y="329.2573">gpio:RPi.GPIO</text><rect fill="none" height="6" style="stroke: #595959; stroke-width: 1.0;" width="6" x="769" y="338.47"/><text fill="#000000" font-family="Open Sans" font-size="11" lengthAdjust="spacingAndGlyphs" textLength="94" x="781" y="344.2373">pin_trigger:Integer</text><rect fill="none" height="6" style="stroke: #595959; stroke-width: 1.0;" width="6" x="769" y="353.45"/><text fill="#000000" font-family="Open Sans" font-size="11" lengthAdjust="spacingAndGlyphs" textLength="86" x="781" y="359.2173">pin_echo:Integer</text><line style="stroke: #383838; stroke-width: 1.5;" x1="762" x2="994" y1="366.4399" y2="366.4399"/><ellipse cx="772" cy="379.4299" fill="#A6A6A6" rx="3" ry="3" style="stroke: #545454; stroke-width: 1.0;"/><text fill="#000000" font-family="Open Sans" font-size="11" lengthAdjust="spacingAndGlyphs" textLength="180" x="781" y="382.1973">__init__(pin_trigger, pin_echo, gpio)</text><ellipse cx="772" cy="394.4099" fill="#A6A6A6" rx="3" ry="3" style="stroke: #545454; stroke-width: 1.0;"/><text fill="#000000" font-family="Open Sans" font-size="11" lengthAdjust="spacingAndGlyphs" text-decoration="underline" textLength="163" x="781" y="397.1772">fake_distance(min, max):Integer</text><line style="stroke: #000000; stroke-width: 1.0;" x1="781" x2="944" y1="399.1772" y2="399.1772"/><ellipse cx="772" cy="409.3899" fill="#A6A6A6" rx="3" ry="3" style="stroke: #545454; stroke-width: 1.0;"/><text fill="#000000" font-family="Open Sans" font-size="11" lengthAdjust="spacingAndGlyphs" textLength="208" x="781" y="412.1572">median_distance(measure_millis):Integer</text><ellipse cx="772" cy="424.3699" fill="#A6A6A6" rx="3" ry="3" style="stroke: #545454; stroke-width: 1.0;"/><text fill="#000000" font-family="Open Sans" font-size="11" lengthAdjust="spacingAndGlyphs" textLength="151" x="781" y="427.1372">n_median_distance(n):Integer</text><rect fill="#808080" height="6" style="stroke: #595959; stroke-width: 1.0;" width="6" x="769" y="436.3499"/><text fill="#000000" font-family="Open Sans" font-size="11" lengthAdjust="spacingAndGlyphs" textLength="88" x="781" y="442.1172">distance():Integer</text><!--link Brain to UltrasonicSensor--><path d="M566.4522,176.1336 C619.2471,203.2613 686.2281,239.0127 744,274 C749.542,277.3563 755.1699,280.8481 760.8234,284.424 " fill="none" id="Brain-UltrasonicSensor" style="stroke: #383838; stroke-width: 1.0;"/><polygon fill="#FFFFFF" points="554.727,170.1306,558.2448,176.4254,565.4084,175.5993,561.8906,169.3045,554.727,170.1306" style="stroke: #383838; stroke-width: 1.0;"/><text fill="#000000" font-family="Open Sans" font-size="13" lengthAdjust="spacingAndGlyphs" textLength="7" x="562.4917" y="169.9814">1</text><text fill="#000000" font-family="Open Sans" font-size="13" lengthAdjust="spacingAndGlyphs" textLength="7" x="746.0926" y="275.6082">2</text><!--link Brain to Arduino--><path d="M381.7185,173.2154 C329.0361,199.5161 262.7801,235.4119 208,274 C202.0682,278.1785 196.102,282.6601 190.1938,287.3133 " fill="none" id="Brain-Arduino" style="stroke: #383838; stroke-width: 1.0;"/><polygon fill="#FFFFFF" points="393.4279,167.4157,386.2759,166.4944,382.6747,172.742,389.8267,173.6632,393.4279,167.4157" style="stroke: #383838; stroke-width: 1.0;"/><!--link Brain to EndSwitch--><path d="M400.5908,224.4692 C375.3517,256.949 348.1999,291.8903 327.2365,318.8678 " fill="none" id="Brain-EndSwitch" style="stroke: #383838; stroke-width: 1.0;"/><polygon fill="#FFFFFF" points="408.7078,214.0235,401.8678,216.3069,401.3447,223.499,408.1847,221.2156,408.7078,214.0235" style="stroke: #383838; stroke-width: 1.0;"/><!--link Brain to TargetDetection--><path d="M474,227.4284 C474,259.0593 474,292.7078 474,318.8678 " fill="none" id="Brain-TargetDetection" style="stroke: #383838; stroke-width: 1.0;"/><polygon fill="#FFFFFF" points="474,214.0235,470,220.0235,474,226.0235,478,220.0235,474,214.0235" style="stroke: #383838; stroke-width: 1.0;"/><!--link Brain to TcpServer--><path d="M548.1929,224.4455 C565.0293,245.8778 582.7085,268.383 598.8774,288.9655 " fill="none" id="Brain-TcpServer" style="stroke: #383838; stroke-width: 1.0;"/><polygon fill="#FFFFFF" points="540.0057,214.0235,540.5667,221.2127,547.4187,223.46,546.8577,216.2708,540.0057,214.0235" style="stroke: #383838; stroke-width: 1.0;"/><!--link TargetDetection to ImageAnalyzer--><path d="M474,425.4796 C474,452.6904 474,485.7083 474,516.9198 " fill="none" id="TargetDetection-ImageAnalyzer" style="stroke: #383838; stroke-width: 1.0;"/><polygon fill="#FFFFFF" points="474,412.2219,470,418.2219,474,424.2219,478,418.2219,474,412.2219" style="stroke: #383838; stroke-width: 1.0;"/><!--
@startuml

skinparam monochrome true
skinparam defaultFontName Open Sans

package "silisloth" {
    class Brain {
        - arduino:Arduino
        - eye:TargetDetection
        - server:TcpServer
        - sensor_x:UltrasonicSensor
        - sensor_z:UltrasonicSensor
        - end_switch:EndSwitch
        - logger:Logger
        - - -
        + start()
    }
    class Arduino {
        - device:String
        - - -
        + __init__(device)
        + freight_ready():Boolean
        + move_off()
        + pick_up(height:Integer)
        + decelerate()
        + drop_freight(height:Integer)
        + halt()
        - write(cmd:String)
    }
    class EndSwitch {
        - gpio:RPi.GPIO
        - - -
        + __init__(gpio)
        + is_pressed():Boolean
    }
    class ImageAnalyzer {
        - innermost_square_height_mm:Integer
        - - -
        + __init__(innermost_square_height_mm:Integer)
        {static} + determine_center(contours:numpy.array):Integer[2]
        {static} + to_grayscale(image:numpy.array, threshold:Integer):numpy.array
        {static} + is_square_shaped(countours:numpy.array):Boolean
        {static} + has_neighbours(hierarchy:numpy.array):Boolean
        {static} + find_smallest(cont_hier_list:numpy.array)
        {static} + calc_middle(image:numpy.array)
        + calculate_distance(image_bgr:numpy.array):Integer
        + estimate_distance_to_center(image:numpy.array, contours:numpy.array):Integer
        + has_square_area(image, contours):Boolean
    }
    class TargetDetection {
        - cam:PiCamera
        - analyzer:ImageAnalyzer
        + distance_to_target():Integer
    }
    class TcpServer {
        - ip:String
        - port:Integer
        - buf_size:Integer
        - - -
        + __init()__
        + close()
        + send(message:String)
        + receive():String
    }
    class UltrasonicSensor {
        - gpio:RPi.GPIO
        - pin_trigger:Integer
        - pin_echo:Integer
        + __init__(pin_trigger, pin_echo, gpio)
        {static} + fake_distance(min, max):Integer
        + median_distance(measure_millis):Integer
        + n_median_distance(n):Integer
        - distance():Integer
    }
    Brain "1" o- - "2" UltrasonicSensor
    Brain o- - Arduino
    Brain o- - EndSwitch
    Brain o- - TargetDetection
    Brain o- - TcpServer
    TargetDetection o- - ImageAnalyzer
}

@enduml

PlantUML version 1.2018.02(Fri Mar 09 18:20:44 CET 2018)
(GPL source distribution)
Java Runtime: OpenJDK Runtime Environment
JVM: OpenJDK 64-Bit Server VM
Java Version: 1.8.0_172-b11
Operating System: Linux
OS Version: 4.16.6-1-ARCH
Default Encoding: UTF-8
Language: en
Country: US
--></g></svg>