<?xml version="1.0" encoding="UTF-8" standalone="no"?><svg xmlns="http://www.w3.org/2000/svg" xmlns:xlink="http://www.w3.org/1999/xlink" contentScriptType="application/ecmascript" contentStyleType="text/css" height="1110px" preserveAspectRatio="none" style="width:578px;height:1110px;" version="1.1" viewBox="0 0 578 1110" width="578px" zoomAndPan="magnify"><defs><filter height="300%" id="f116nd83k9oc74" width="300%" x="-1" y="-1"><feGaussianBlur result="blurOut" stdDeviation="2.0"/><feColorMatrix in="blurOut" result="blurOut2" type="matrix" values="0 0 0 0 0 0 0 0 0 0 0 0 0 0 0 0 0 0 .4 0"/><feOffset dx="4.0" dy="4.0" in="blurOut2" result="blurOut3"/><feBlend in="SourceGraphic" in2="blurOut3" mode="normal"/></filter></defs><g><rect fill="#FFFFFF" filter="url(#f116nd83k9oc74)" height="974.4795" style="stroke: #383838; stroke-width: 1.0;" width="10" x="156" y="74.769"/><rect fill="#FFFFFF" filter="url(#f116nd83k9oc74)" height="138.1108" style="stroke: #383838; stroke-width: 1.0;" width="10" x="308" y="106.4727"/><rect fill="#FFFFFF" filter="url(#f116nd83k9oc74)" height="741.2578" style="stroke: #383838; stroke-width: 1.0;" width="10" x="308" y="276.2871"/><rect fill="#FFFFFF" filter="url(#f116nd83k9oc74)" height="30" style="stroke: #383838; stroke-width: 1.0;" width="10" x="530" y="138.1763"/><rect fill="#FFFFFF" filter="url(#f116nd83k9oc74)" height="31.7036" style="stroke: #383838; stroke-width: 1.0;" width="10" x="530" y="244.5835"/><rect fill="#FFFFFF" filter="url(#f116nd83k9oc74)" height="30" style="stroke: #383838; stroke-width: 1.0;" width="10" x="530" y="418.1016"/><rect fill="#FFFFFF" filter="url(#f116nd83k9oc74)" height="30" style="stroke: #383838; stroke-width: 1.0;" width="10" x="530" y="558.2124"/><rect fill="#FFFFFF" filter="url(#f116nd83k9oc74)" height="30" style="stroke: #383838; stroke-width: 1.0;" width="10" x="530" y="698.3232"/><rect fill="#FFFFFF" filter="url(#f116nd83k9oc74)" height="30" style="stroke: #383838; stroke-width: 1.0;" width="10" x="530" y="849.4341"/><rect fill="#FFFFFF" filter="url(#f116nd83k9oc74)" height="30" style="stroke: #383838; stroke-width: 1.0;" width="10" x="530" y="955.8413"/><rect fill="#FFFFFF" filter="url(#f116nd83k9oc74)" height="51.4072" style="stroke: #000000; stroke-width: 2.0;" width="285.5" x="87" y="291.2871"/><rect fill="#FFFFFF" filter="url(#f116nd83k9oc74)" height="64.4072" style="stroke: #000000; stroke-width: 2.0;" width="265" x="253.5" y="463.1016"/><rect fill="#FFFFFF" filter="url(#f116nd83k9oc74)" height="64.4072" style="stroke: #000000; stroke-width: 2.0;" width="237" x="253.5" y="603.2124"/><line style="stroke: #383838; stroke-width: 1.0; stroke-dasharray: 5.0,5.0;" x1="47" x2="47" y1="41.0654" y2="1067.2485"/><line style="stroke: #383838; stroke-width: 1.0; stroke-dasharray: 5.0,5.0;" x1="161" x2="161" y1="41.0654" y2="1067.2485"/><line style="stroke: #383838; stroke-width: 1.0; stroke-dasharray: 5.0,5.0;" x1="312.5" x2="312.5" y1="41.0654" y2="1067.2485"/><line style="stroke: #383838; stroke-width: 1.0; stroke-dasharray: 5.0,5.0;" x1="535" x2="535" y1="41.0654" y2="1067.2485"/><rect fill="#F8F8F8" filter="url(#f116nd83k9oc74)" height="33.0654" style="stroke: #383838; stroke-width: 1.5;" width="75" x="8" y="3"/><text fill="#000000" font-family="Open Sans" font-size="14" lengthAdjust="spacingAndGlyphs" textLength="61" x="15" y="24.9639">Benutzer</text><rect fill="#F8F8F8" filter="url(#f116nd83k9oc74)" height="33.0654" style="stroke: #383838; stroke-width: 1.5;" width="75" x="8" y="1066.2485"/><text fill="#000000" font-family="Open Sans" font-size="14" lengthAdjust="spacingAndGlyphs" textLength="61" x="15" y="1088.2124">Benutzer</text><rect fill="#F8F8F8" filter="url(#f116nd83k9oc74)" height="33.0654" style="stroke: #383838; stroke-width: 1.5;" width="124" x="97" y="3"/><text fill="#000000" font-family="Open Sans" font-size="14" lengthAdjust="spacingAndGlyphs" textLength="110" x="104" y="24.9639">SmartphoneApp</text><rect fill="#F8F8F8" filter="url(#f116nd83k9oc74)" height="33.0654" style="stroke: #383838; stroke-width: 1.5;" width="124" x="97" y="1066.2485"/><text fill="#000000" font-family="Open Sans" font-size="14" lengthAdjust="spacingAndGlyphs" textLength="110" x="104" y="1088.2124">SmartphoneApp</text><rect fill="#F8F8F8" filter="url(#f116nd83k9oc74)" height="33.0654" style="stroke: #383838; stroke-width: 1.5;" width="95" x="263.5" y="3"/><text fill="#000000" font-family="Open Sans" font-size="14" lengthAdjust="spacingAndGlyphs" textLength="81" x="270.5" y="24.9639">RaspberryPi</text><rect fill="#F8F8F8" filter="url(#f116nd83k9oc74)" height="33.0654" style="stroke: #383838; stroke-width: 1.5;" width="95" x="263.5" y="1066.2485"/><text fill="#000000" font-family="Open Sans" font-size="14" lengthAdjust="spacingAndGlyphs" textLength="81" x="270.5" y="1088.2124">RaspberryPi</text><rect fill="#F8F8F8" filter="url(#f116nd83k9oc74)" height="33.0654" style="stroke: #383838; stroke-width: 1.5;" width="68" x="499" y="3"/><text fill="#000000" font-family="Open Sans" font-size="14" lengthAdjust="spacingAndGlyphs" textLength="54" x="506" y="24.9639">Arduino</text><rect fill="#F8F8F8" filter="url(#f116nd83k9oc74)" height="33.0654" style="stroke: #383838; stroke-width: 1.5;" width="68" x="499" y="1066.2485"/><text fill="#000000" font-family="Open Sans" font-size="14" lengthAdjust="spacingAndGlyphs" textLength="54" x="506" y="1088.2124">Arduino</text><rect fill="#FFFFFF" filter="url(#f116nd83k9oc74)" height="974.4795" style="stroke: #383838; stroke-width: 1.0;" width="10" x="156" y="74.769"/><rect fill="#FFFFFF" filter="url(#f116nd83k9oc74)" height="138.1108" style="stroke: #383838; stroke-width: 1.0;" width="10" x="308" y="106.4727"/><rect fill="#FFFFFF" filter="url(#f116nd83k9oc74)" height="741.2578" style="stroke: #383838; stroke-width: 1.0;" width="10" x="308" y="276.2871"/><rect fill="#FFFFFF" filter="url(#f116nd83k9oc74)" height="30" style="stroke: #383838; stroke-width: 1.0;" width="10" x="530" y="138.1763"/><rect fill="#FFFFFF" filter="url(#f116nd83k9oc74)" height="31.7036" style="stroke: #383838; stroke-width: 1.0;" width="10" x="530" y="244.5835"/><rect fill="#FFFFFF" filter="url(#f116nd83k9oc74)" height="30" style="stroke: #383838; stroke-width: 1.0;" width="10" x="530" y="418.1016"/><rect fill="#FFFFFF" filter="url(#f116nd83k9oc74)" height="30" style="stroke: #383838; stroke-width: 1.0;" width="10" x="530" y="558.2124"/><rect fill="#FFFFFF" filter="url(#f116nd83k9oc74)" height="30" style="stroke: #383838; stroke-width: 1.0;" width="10" x="530" y="698.3232"/><rect fill="#FFFFFF" filter="url(#f116nd83k9oc74)" height="30" style="stroke: #383838; stroke-width: 1.0;" width="10" x="530" y="849.4341"/><rect fill="#FFFFFF" filter="url(#f116nd83k9oc74)" height="30" style="stroke: #383838; stroke-width: 1.0;" width="10" x="530" y="955.8413"/><line style="stroke: #383838; stroke-width: 1.0;" x1="154" x2="144" y1="74.769" y2="70.769"/><line style="stroke: #383838; stroke-width: 1.0;" x1="154" x2="144" y1="74.769" y2="78.769"/><line style="stroke: #383838; stroke-width: 1.0;" x1="47.5" x2="155" y1="74.769" y2="74.769"/><text fill="#000000" font-family="Open Sans" font-size="13" lengthAdjust="spacingAndGlyphs" textLength="29" x="54.5" y="68.9604">Start</text><line style="stroke: #383838; stroke-width: 1.0;" x1="306" x2="296" y1="106.4727" y2="102.4727"/><line style="stroke: #383838; stroke-width: 1.0;" x1="306" x2="296" y1="106.4727" y2="110.4727"/><line style="stroke: #383838; stroke-width: 1.0;" x1="166" x2="307" y1="106.4727" y2="106.4727"/><text fill="#000000" font-family="Open Sans" font-size="13" lengthAdjust="spacingAndGlyphs" textLength="29" x="173" y="100.6641">Start</text><line style="stroke: #383838; stroke-width: 1.0;" x1="528" x2="518" y1="138.1763" y2="134.1763"/><line style="stroke: #383838; stroke-width: 1.0;" x1="528" x2="518" y1="138.1763" y2="142.1763"/><line style="stroke: #383838; stroke-width: 1.0;" x1="318" x2="529" y1="138.1763" y2="138.1763"/><text fill="#000000" font-family="Open Sans" font-size="13" lengthAdjust="spacingAndGlyphs" textLength="56" x="325" y="132.3677">losfahren</text><line style="stroke: #383838; stroke-width: 1.0;" x1="318" x2="360" y1="199.8799" y2="199.8799"/><line style="stroke: #383838; stroke-width: 1.0;" x1="360" x2="360" y1="199.8799" y2="212.8799"/><line style="stroke: #383838; stroke-width: 1.0;" x1="319" x2="360" y1="212.8799" y2="212.8799"/><polygon fill="#383838" points="329,208.8799,319,212.8799,329,216.8799,325,212.8799" style="stroke: #383838; stroke-width: 1.0;"/><text fill="#000000" font-family="Open Sans" font-size="13" lengthAdjust="spacingAndGlyphs" textLength="113" x="325" y="194.0713">Holzw체rfel erreicht</text><polygon fill="#383838" points="518,240.5835,528,244.5835,518,248.5835,522,244.5835" style="stroke: #383838; stroke-width: 1.0;"/><line style="stroke: #383838; stroke-width: 1.0;" x1="313" x2="524" y1="244.5835" y2="244.5835"/><text fill="#000000" font-family="Open Sans" font-size="13" lengthAdjust="spacingAndGlyphs" textLength="182" x="320" y="238.7749">Last aufnehmen(z-Koordinate)</text><polygon fill="#383838" points="329,272.2871,319,276.2871,329,280.2871,325,276.2871" style="stroke: #383838; stroke-width: 1.0;"/><line style="stroke: #383838; stroke-width: 1.0; stroke-dasharray: 2.0,2.0;" x1="323" x2="534" y1="276.2871" y2="276.2871"/><text fill="#000000" font-family="Open Sans" font-size="13" lengthAdjust="spacingAndGlyphs" textLength="116" x="335" y="270.4785">Last aufgenommen</text><path d="M87,291.2871 L160,291.2871 L160,300.2871 L150,310.2871 L87,310.2871 L87,291.2871 " fill="#EEEEEE" style="stroke: #000000; stroke-width: 1.0;"/><rect fill="none" height="51.4072" style="stroke: #000000; stroke-width: 2.0;" width="285.5" x="87" y="291.2871"/><text fill="#000000" font-family="Open Sans" font-size="13" font-weight="bold" lengthAdjust="spacingAndGlyphs" textLength="28" x="102" y="306.1821">loop</text><text fill="#000000" font-family="Open Sans" font-size="11" font-weight="bold" lengthAdjust="spacingAndGlyphs" textLength="106" x="175" y="305.0444">[bis Last abgesetzt]</text><line style="stroke: #383838; stroke-width: 1.0;" x1="166" x2="176" y1="334.6943" y2="330.6943"/><line style="stroke: #383838; stroke-width: 1.0;" x1="166" x2="176" y1="334.6943" y2="338.6943"/><line style="stroke: #383838; stroke-width: 1.0; stroke-dasharray: 2.0,2.0;" x1="166" x2="307" y1="334.6943" y2="334.6943"/><text fill="#000000" font-family="Open Sans" font-size="13" lengthAdjust="spacingAndGlyphs" textLength="118" x="183" y="328.8857">x- und z-Koordinate</text><line style="stroke: #383838; stroke-width: 1.0;" x1="318" x2="360" y1="373.3979" y2="373.3979"/><line style="stroke: #383838; stroke-width: 1.0;" x1="360" x2="360" y1="373.3979" y2="386.3979"/><line style="stroke: #383838; stroke-width: 1.0;" x1="319" x2="360" y1="386.3979" y2="386.3979"/><line style="stroke: #383838; stroke-width: 1.0;" x1="319" x2="329" y1="386.3979" y2="382.3979"/><line style="stroke: #383838; stroke-width: 1.0;" x1="319" x2="329" y1="386.3979" y2="390.3979"/><text fill="#000000" font-family="Open Sans" font-size="13" lengthAdjust="spacingAndGlyphs" textLength="153" x="325" y="367.5894">Zielfelderkennung starten</text><line style="stroke: #383838; stroke-width: 1.0;" x1="528" x2="518" y1="418.1016" y2="414.1016"/><line style="stroke: #383838; stroke-width: 1.0;" x1="528" x2="518" y1="418.1016" y2="422.1016"/><line style="stroke: #383838; stroke-width: 1.0;" x1="318" x2="529" y1="418.1016" y2="418.1016"/><text fill="#000000" font-family="Open Sans" font-size="13" lengthAdjust="spacingAndGlyphs" textLength="76" x="325" y="412.293">weiterfahren</text><path d="M253.5,463.1016 L326.5,463.1016 L326.5,472.1016 L316.5,482.1016 L253.5,482.1016 L253.5,463.1016 " fill="#EEEEEE" style="stroke: #000000; stroke-width: 1.0;"/><rect fill="none" height="64.4072" style="stroke: #000000; stroke-width: 2.0;" width="265" x="253.5" y="463.1016"/><text fill="#000000" font-family="Open Sans" font-size="13" font-weight="bold" lengthAdjust="spacingAndGlyphs" textLength="28" x="268.5" y="477.9966">loop</text><text fill="#000000" font-family="Open Sans" font-size="11" font-weight="bold" lengthAdjust="spacingAndGlyphs" textLength="172" x="341.5" y="476.8589">[bis Distanz zu Zielfeld erkannt]</text><line style="stroke: #383838; stroke-width: 1.0;" x1="318" x2="360" y1="506.5088" y2="506.5088"/><line style="stroke: #383838; stroke-width: 1.0;" x1="360" x2="360" y1="506.5088" y2="519.5088"/><line style="stroke: #383838; stroke-width: 1.0;" x1="319" x2="360" y1="519.5088" y2="519.5088"/><line style="stroke: #383838; stroke-width: 1.0;" x1="319" x2="329" y1="519.5088" y2="515.5088"/><line style="stroke: #383838; stroke-width: 1.0;" x1="319" x2="329" y1="519.5088" y2="523.5088"/><text fill="#000000" font-family="Open Sans" font-size="13" lengthAdjust="spacingAndGlyphs" textLength="88" x="325" y="500.7002">Bild auswerten</text><line style="stroke: #383838; stroke-width: 1.0;" x1="528" x2="518" y1="558.2124" y2="554.2124"/><line style="stroke: #383838; stroke-width: 1.0;" x1="528" x2="518" y1="558.2124" y2="562.2124"/><line style="stroke: #383838; stroke-width: 1.0;" x1="318" x2="529" y1="558.2124" y2="558.2124"/><text fill="#000000" font-family="Open Sans" font-size="13" lengthAdjust="spacingAndGlyphs" textLength="84" x="325" y="552.4038">verlangsamen</text><path d="M253.5,603.2124 L326.5,603.2124 L326.5,612.2124 L316.5,622.2124 L253.5,622.2124 L253.5,603.2124 " fill="#EEEEEE" style="stroke: #000000; stroke-width: 1.0;"/><rect fill="none" height="64.4072" style="stroke: #000000; stroke-width: 2.0;" width="237" x="253.5" y="603.2124"/><text fill="#000000" font-family="Open Sans" font-size="13" font-weight="bold" lengthAdjust="spacingAndGlyphs" textLength="28" x="268.5" y="618.1074">loop</text><text fill="#000000" font-family="Open Sans" font-size="11" font-weight="bold" lengthAdjust="spacingAndGlyphs" textLength="144" x="341.5" y="616.9697">[bis Absetzpunkt erreicht]</text><line style="stroke: #383838; stroke-width: 1.0;" x1="318" x2="360" y1="646.6196" y2="646.6196"/><line style="stroke: #383838; stroke-width: 1.0;" x1="360" x2="360" y1="646.6196" y2="659.6196"/><line style="stroke: #383838; stroke-width: 1.0;" x1="319" x2="360" y1="659.6196" y2="659.6196"/><line style="stroke: #383838; stroke-width: 1.0;" x1="319" x2="329" y1="659.6196" y2="655.6196"/><line style="stroke: #383838; stroke-width: 1.0;" x1="319" x2="329" y1="659.6196" y2="663.6196"/><text fill="#000000" font-family="Open Sans" font-size="13" lengthAdjust="spacingAndGlyphs" textLength="88" x="325" y="640.811">Bild auswerten</text><line style="stroke: #383838; stroke-width: 1.0;" x1="528" x2="518" y1="698.3232" y2="694.3232"/><line style="stroke: #383838; stroke-width: 1.0;" x1="528" x2="518" y1="698.3232" y2="702.3232"/><line style="stroke: #383838; stroke-width: 1.0;" x1="318" x2="529" y1="698.3232" y2="698.3232"/><text fill="#000000" font-family="Open Sans" font-size="13" lengthAdjust="spacingAndGlyphs" textLength="167" x="325" y="692.5146">Last absetzen(z-Koordinate)</text><line style="stroke: #383838; stroke-width: 1.0;" x1="318" x2="360" y1="760.0269" y2="760.0269"/><line style="stroke: #383838; stroke-width: 1.0;" x1="360" x2="360" y1="760.0269" y2="773.0269"/><line style="stroke: #383838; stroke-width: 1.0;" x1="319" x2="360" y1="773.0269" y2="773.0269"/><line style="stroke: #383838; stroke-width: 1.0;" x1="319" x2="329" y1="773.0269" y2="769.0269"/><line style="stroke: #383838; stroke-width: 1.0;" x1="319" x2="329" y1="773.0269" y2="777.0269"/><text fill="#000000" font-family="Open Sans" font-size="13" lengthAdjust="spacingAndGlyphs" textLength="120" x="325" y="754.2183">Endtaster aktivieren</text><line style="stroke: #383838; stroke-width: 1.0;" x1="318" x2="360" y1="804.7305" y2="804.7305"/><line style="stroke: #383838; stroke-width: 1.0;" x1="360" x2="360" y1="804.7305" y2="817.7305"/><line style="stroke: #383838; stroke-width: 1.0;" x1="319" x2="360" y1="817.7305" y2="817.7305"/><line style="stroke: #383838; stroke-width: 1.0;" x1="319" x2="329" y1="817.7305" y2="813.7305"/><line style="stroke: #383838; stroke-width: 1.0;" x1="319" x2="329" y1="817.7305" y2="821.7305"/><text fill="#000000" font-family="Open Sans" font-size="13" lengthAdjust="spacingAndGlyphs" textLength="198" x="325" y="798.9219">Kritische Distanz zu Mast erkannt</text><line style="stroke: #383838; stroke-width: 1.0;" x1="528" x2="518" y1="849.4341" y2="845.4341"/><line style="stroke: #383838; stroke-width: 1.0;" x1="528" x2="518" y1="849.4341" y2="853.4341"/><line style="stroke: #383838; stroke-width: 1.0;" x1="318" x2="529" y1="849.4341" y2="849.4341"/><text fill="#000000" font-family="Open Sans" font-size="13" lengthAdjust="spacingAndGlyphs" textLength="84" x="325" y="843.6255">verlangsamen</text><line style="stroke: #383838; stroke-width: 1.0;" x1="318" x2="360" y1="911.1377" y2="911.1377"/><line style="stroke: #383838; stroke-width: 1.0;" x1="360" x2="360" y1="911.1377" y2="924.1377"/><line style="stroke: #383838; stroke-width: 1.0;" x1="319" x2="360" y1="924.1377" y2="924.1377"/><line style="stroke: #383838; stroke-width: 1.0;" x1="319" x2="329" y1="924.1377" y2="920.1377"/><line style="stroke: #383838; stroke-width: 1.0;" x1="319" x2="329" y1="924.1377" y2="928.1377"/><text fill="#000000" font-family="Open Sans" font-size="13" lengthAdjust="spacingAndGlyphs" textLength="120" x="325" y="905.3291">Endschalter bet채tigt</text><line style="stroke: #383838; stroke-width: 1.0;" x1="528" x2="518" y1="955.8413" y2="951.8413"/><line style="stroke: #383838; stroke-width: 1.0;" x1="528" x2="518" y1="955.8413" y2="959.8413"/><line style="stroke: #383838; stroke-width: 1.0;" x1="318" x2="529" y1="955.8413" y2="955.8413"/><text fill="#000000" font-family="Open Sans" font-size="13" lengthAdjust="spacingAndGlyphs" textLength="53" x="325" y="950.0327">anhalten</text><line style="stroke: #383838; stroke-width: 1.0;" x1="166" x2="176" y1="1017.5449" y2="1013.5449"/><line style="stroke: #383838; stroke-width: 1.0;" x1="166" x2="176" y1="1017.5449" y2="1021.5449"/><line style="stroke: #383838; stroke-width: 1.0; stroke-dasharray: 2.0,2.0;" x1="166" x2="312" y1="1017.5449" y2="1017.5449"/><text fill="#000000" font-family="Open Sans" font-size="13" lengthAdjust="spacingAndGlyphs" textLength="53" x="183" y="1011.7363">beenden</text><line style="stroke: #383838; stroke-width: 1.0;" x1="47.5" x2="57.5" y1="1049.2485" y2="1045.2485"/><line style="stroke: #383838; stroke-width: 1.0;" x1="47.5" x2="57.5" y1="1049.2485" y2="1053.2485"/><line style="stroke: #383838; stroke-width: 1.0; stroke-dasharray: 2.0,2.0;" x1="47.5" x2="160" y1="1049.2485" y2="1049.2485"/><text fill="#000000" font-family="Open Sans" font-size="13" lengthAdjust="spacingAndGlyphs" textLength="31" x="64.5" y="1043.4399">fertig</text><!--
@startuml
skinparam monochrome true
skinparam defaultFontName Open Sans 
Benutzer ->> SmartphoneApp: Start
activate SmartphoneApp
SmartphoneApp ->> RaspberryPi: Start
activate RaspberryPi
RaspberryPi ->> Arduino: losfahren
activate Arduino
deactivate Arduino
RaspberryPi -> RaspberryPi: Holzw체rfel erreicht
RaspberryPi -> Arduino: Last aufnehmen(z-Koordinate)
deactivate RaspberryPi
activate Arduino
Arduino - -> RaspberryPi: Last aufgenommen
deactivate Arduino
activate RaspberryPi
loop bis Last abgesetzt
    RaspberryPi - ->> SmartphoneApp: x- und z-Koordinate
end
RaspberryPi ->> RaspberryPi: Zielfelderkennung starten
RaspberryPi ->> Arduino: weiterfahren
activate Arduino
deactivate Arduino
loop bis Distanz zu Zielfeld erkannt
    RaspberryPi ->> RaspberryPi: Bild auswerten
end
RaspberryPi ->> Arduino: verlangsamen
activate Arduino
deactivate Arduino
loop bis Absetzpunkt erreicht
    RaspberryPi ->> RaspberryPi: Bild auswerten
end
RaspberryPi ->> Arduino: Last absetzen(z-Koordinate)
activate Arduino
deactivate Arduino
RaspberryPi ->> RaspberryPi: Endtaster aktivieren
RaspberryPi ->> RaspberryPi: Kritische Distanz zu Mast erkannt
RaspberryPi ->> Arduino: verlangsamen
activate Arduino
deactivate Arduino
RaspberryPi ->> RaspberryPi: Endschalter bet채tigt
RaspberryPi ->> Arduino: anhalten
activate Arduino
deactivate Arduino
RaspberryPi - ->> SmartphoneApp: beenden
deactivate RaspberryPi
SmartphoneApp - ->> Benutzer: fertig
deactivate SmartphoneApp
@enduml

PlantUML version 1.2018.03(Thu Apr 05 18:59:15 CEST 2018)
(GPL source distribution)
Java Runtime: OpenJDK Runtime Environment
JVM: OpenJDK 64-Bit Server VM
Java Version: 1.8.0_172-b11
Operating System: Linux
OS Version: 4.16.9-1-ARCH
Default Encoding: UTF-8
Language: en
Country: US
--></g></svg>