<?xml version="1.0" encoding="UTF-8" standalone="no"?>
<!DOCTYPE svg PUBLIC "-//W3C//DTD SVG 1.1//EN"
 "http://www.w3.org/Graphics/SVG/1.1/DTD/svg11.dtd">
<!-- Generated by graphviz version 2.40.1 (20161225.0304)
 -->
<!-- Title: hightech Pages: 1 -->
<svg width="1026pt" height="661pt"
 viewBox="0.00 0.00 1026.00 661.25" xmlns="http://www.w3.org/2000/svg" xmlns:xlink="http://www.w3.org/1999/xlink">
<g id="graph0" class="graph" transform="scale(1 1) rotate(0) translate(4 657.25)">
<title>hightech</title>
<polygon fill="#ffffff" stroke="transparent" points="-4,4 -4,-657.25 1022,-657.25 1022,4 -4,4"/>
<g id="clust1" class="cluster">
<title>cluster_rechenzentrum</title>
</g>
<g id="clust2" class="cluster">
<title>cluster_sensorik</title>
<polygon fill="none" stroke="#000000" stroke-dasharray="1,5" points="8,-238 8,-300 436,-300 436,-238 8,-238"/>
</g>
<g id="clust3" class="cluster">
<title>cluster_kraftwerk</title>
</g>
<g id="clust4" class="cluster">
<title>cluster_maschinenraum</title>
<polygon fill="none" stroke="#000000" stroke-dasharray="1,5" points="474,-320 474,-546 805,-546 805,-320 474,-320"/>
</g>
<g id="clust5" class="cluster">
<title>cluster_desktop</title>
</g>
<!-- Sprachsignal -->
<g id="node1" class="node">
<title>Sprachsignal</title>
<text text-anchor="middle" x="64" y="-347.2" font-family="Open Sans" font-size="16.00" fill="#000000">Sprachsignal</text>
</g>
<!-- Mikrofon -->
<g id="node12" class="node">
<title>Mikrofon</title>
<polygon fill="none" stroke="#000000" points="94,-286 16,-286 16,-246 34,-246 34,-252 94,-252 94,-246 112,-269 94,-292 94,-286"/>
<text text-anchor="middle" x="64" y="-265.2" font-family="Open Sans" font-size="16.00" fill="#000000">Mikrofon</text>
</g>
<!-- Sprachsignal&#45;&gt;Mikrofon -->
<g id="edge1" class="edge">
<title>Sprachsignal&#45;&gt;Mikrofon</title>
<path fill="none" stroke="#000000" d="M64,-327.7214C64,-316.547 64,-303.1979 64,-292.053"/>
</g>
<!-- Spracherkennung -->
<g id="node2" class="node">
<title>Spracherkennung</title>
<polygon fill="none" stroke="#000000" points="190.5,-210 29.5,-210 29.5,-206 25.5,-206 25.5,-202 29.5,-202 29.5,-172 25.5,-172 25.5,-168 29.5,-168 29.5,-164 190.5,-164 190.5,-210"/>
<polyline fill="none" stroke="#000000" points="29.5,-206 33.5,-206 33.5,-202 29.5,-202 "/>
<polyline fill="none" stroke="#000000" points="29.5,-172 33.5,-172 33.5,-168 29.5,-168 "/>
<text text-anchor="middle" x="110" y="-183.2" font-family="Open Sans" font-size="16.00" fill="#000000">Spracherkennung</text>
</g>
<!-- Entwicklerboard -->
<g id="node10" class="node">
<title>Entwicklerboard</title>
<polygon fill="none" stroke="#000000" points="419.5,-210 274.5,-210 270.5,-206 270.5,-164 415.5,-164 419.5,-168 419.5,-210"/>
<polyline fill="none" stroke="#000000" points="415.5,-206 270.5,-206 "/>
<polyline fill="none" stroke="#000000" points="415.5,-206 415.5,-164 "/>
<polyline fill="none" stroke="#000000" points="415.5,-206 419.5,-210 "/>
<text text-anchor="middle" x="345" y="-183.2" font-family="Open Sans" font-size="16.00" fill="#000000">Entwicklerboard</text>
</g>
<!-- Spracherkennung&#45;&gt;Entwicklerboard -->
<g id="edge2" class="edge">
<title>Spracherkennung&#45;&gt;Entwicklerboard</title>
<path fill="none" stroke="#000000" d="M190.5449,-179C216.4539,-179 245.0318,-179 270.4875,-179"/>
</g>
<!-- Desktopanwendung -->
<g id="node19" class="node">
<title>Desktopanwendung</title>
<polygon fill="none" stroke="#000000" points="198.5,-128 33.5,-128 33.5,-132 21.5,-132 21.5,-82 198.5,-82 198.5,-128"/>
<polyline fill="none" stroke="#000000" points="21.5,-128 33.5,-128 "/>
<text text-anchor="middle" x="110" y="-101.2" font-family="Open Sans" font-size="16.00" fill="#000000">Desktopanwendung</text>
</g>
<!-- Spracherkennung&#45;&gt;Desktopanwendung -->
<g id="edge22" class="edge">
<title>Spracherkennung&#45;&gt;Desktopanwendung</title>
<path fill="none" stroke="#000000" d="M110,-163.7214C110,-152.547 110,-139.1979 110,-128.053"/>
</g>
<!-- Zahnrad -->
<g id="node3" class="node">
<title>Zahnrad</title>
<polygon fill="none" stroke="#000000" points="352,-456 260,-456 260,-452 256,-452 256,-448 260,-448 260,-418 256,-418 256,-414 260,-414 260,-410 352,-410 352,-456"/>
<polyline fill="none" stroke="#000000" points="260,-452 264,-452 264,-448 260,-448 "/>
<polyline fill="none" stroke="#000000" points="260,-418 264,-418 264,-414 260,-414 "/>
<text text-anchor="middle" x="306" y="-429.2" font-family="Open Sans" font-size="16.00" fill="#000000">Zahnrad</text>
</g>
<!-- Zahnstange -->
<g id="node4" class="node">
<title>Zahnstange</title>
<polygon fill="none" stroke="#000000" points="396,-374 280,-374 280,-370 276,-370 276,-366 280,-366 280,-336 276,-336 276,-332 280,-332 280,-328 396,-328 396,-374"/>
<polyline fill="none" stroke="#000000" points="280,-370 284,-370 284,-366 280,-366 "/>
<polyline fill="none" stroke="#000000" points="280,-336 284,-336 284,-332 280,-332 "/>
<text text-anchor="middle" x="338" y="-347.2" font-family="Open Sans" font-size="16.00" fill="#000000">Zahnstange</text>
</g>
<!-- Zahnrad&#45;&gt;Zahnstange -->
<g id="edge4" class="edge">
<title>Zahnrad&#45;&gt;Zahnstange</title>
<path fill="none" stroke="#000000" d="M316,-409.7214C316,-398.547 316,-385.1979 316,-374.053"/>
</g>
<!-- Schrittmotor(en) -->
<g id="node16" class="node">
<title>Schrittmotor(en)</title>
<polygon fill="none" stroke="#000000" points="740,-368 602,-368 602,-334 740,-334 752,-351 740,-368"/>
<text text-anchor="middle" x="677" y="-347.2" font-family="Open Sans" font-size="16.00" fill="#000000">Schrittmotor(en)</text>
</g>
<!-- Zahnstange&#45;&gt;Schrittmotor(en) -->
<g id="edge5" class="edge">
<title>Zahnstange&#45;&gt;Schrittmotor(en)</title>
<path fill="none" stroke="#000000" d="M396.2762,-351C453.1629,-351 539.9748,-351 601.9892,-351"/>
</g>
<!-- Geschwindigkeitsregler -->
<g id="node5" class="node">
<title>Geschwindigkeitsregler</title>
<polygon fill="none" stroke="#000000" points="746,-292 546,-292 546,-288 542,-288 542,-284 546,-284 546,-254 542,-254 542,-250 546,-250 546,-246 746,-246 746,-292"/>
<polyline fill="none" stroke="#000000" points="546,-288 550,-288 550,-284 546,-284 "/>
<polyline fill="none" stroke="#000000" points="546,-254 550,-254 550,-250 546,-250 "/>
<text text-anchor="middle" x="646" y="-265.2" font-family="Open Sans" font-size="16.00" fill="#000000">Geschwindigkeitsregler</text>
</g>
<!-- Geschwindigkeitsregler&#45;&gt;Entwicklerboard -->
<g id="edge7" class="edge">
<title>Geschwindigkeitsregler&#45;&gt;Entwicklerboard</title>
<path fill="none" stroke="#000000" d="M646,-245.7214C646,-221.4786 646,-187 646,-187 646,-187 508.9362,-187 419.7912,-187"/>
</g>
<!-- Druckluft -->
<g id="node6" class="node">
<title>Druckluft</title>
<polygon fill="none" stroke="#000000" points="466,-456 370,-456 370,-452 366,-452 366,-448 370,-448 370,-418 366,-418 366,-414 370,-414 370,-410 466,-410 466,-456"/>
<polyline fill="none" stroke="#000000" points="370,-452 374,-452 374,-448 370,-448 "/>
<polyline fill="none" stroke="#000000" points="370,-418 374,-418 374,-414 370,-414 "/>
<text text-anchor="middle" x="418" y="-429.2" font-family="Open Sans" font-size="16.00" fill="#000000">Druckluft</text>
</g>
<!-- Druckluft&#45;&gt;Entwicklerboard -->
<g id="edge10" class="edge">
<title>Druckluft&#45;&gt;Entwicklerboard</title>
<path fill="none" stroke="#000000" d="M433.75,-409.6082C433.75,-350.1677 433.75,-198 433.75,-198 433.75,-198 428.2031,-198 419.8828,-198"/>
</g>
<!-- Spannungswandler -->
<g id="node7" class="node">
<title>Spannungswandler</title>
<polygon fill="none" stroke="#000000" points="1001,-538 829,-538 829,-534 825,-534 825,-530 829,-530 829,-500 825,-500 825,-496 829,-496 829,-492 1001,-492 1001,-538"/>
<polyline fill="none" stroke="#000000" points="829,-534 833,-534 833,-530 829,-530 "/>
<polyline fill="none" stroke="#000000" points="829,-500 833,-500 833,-496 829,-496 "/>
<text text-anchor="middle" x="915" y="-511.2" font-family="Open Sans" font-size="16.00" fill="#000000">Spannungswandler</text>
</g>
<!-- Schalter -->
<g id="node8" class="node">
<title>Schalter</title>
<polygon fill="none" stroke="#000000" points="901.5,-456 812.5,-456 812.5,-452 808.5,-452 808.5,-448 812.5,-448 812.5,-418 808.5,-418 808.5,-414 812.5,-414 812.5,-410 901.5,-410 901.5,-456"/>
<polyline fill="none" stroke="#000000" points="812.5,-452 816.5,-452 816.5,-448 812.5,-448 "/>
<polyline fill="none" stroke="#000000" points="812.5,-418 816.5,-418 816.5,-414 812.5,-414 "/>
<text text-anchor="middle" x="857" y="-429.2" font-family="Open Sans" font-size="16.00" fill="#000000">Schalter</text>
</g>
<!-- Spannungswandler&#45;&gt;Schalter -->
<g id="edge16" class="edge">
<title>Spannungswandler&#45;&gt;Schalter</title>
<path fill="none" stroke="#000000" d="M865.25,-491.7214C865.25,-480.547 865.25,-467.1979 865.25,-456.053"/>
</g>
<!-- Spannungswandler&#45;&gt;Entwicklerboard -->
<g id="edge15" class="edge">
<title>Spannungswandler&#45;&gt;Entwicklerboard</title>
<path fill="none" stroke="#000000" d="M951.25,-491.8977C951.25,-415.3728 951.25,-175 951.25,-175 951.25,-175 581.6868,-175 419.6419,-175"/>
</g>
<!-- Schalter&#45;&gt;Schrittmotor(en) -->
<g id="edge17" class="edge">
<title>Schalter&#45;&gt;Schrittmotor(en)</title>
<path fill="none" stroke="#000000" d="M857,-409.7214C857,-385.4786 857,-351 857,-351 857,-351 801.4227,-351 752.0328,-351"/>
</g>
<!-- Akustische Koordinatenübertragung -->
<g id="node9" class="node">
<title>Akustische Koordinatenübertragung</title>
<polygon fill="none" stroke="#000000" points="439,-46 143,-46 143,-42 139,-42 139,-38 143,-38 143,-8 139,-8 139,-4 143,-4 143,0 439,0 439,-46"/>
<polyline fill="none" stroke="#000000" points="143,-42 147,-42 147,-38 143,-38 "/>
<polyline fill="none" stroke="#000000" points="143,-8 147,-8 147,-4 143,-4 "/>
<text text-anchor="middle" x="291" y="-19.2" font-family="Open Sans" font-size="16.00" fill="#000000">Akustische Koordinatenübertragung</text>
</g>
<!-- Akustische Koordinatenübertragung&#45;&gt;Mikrofon -->
<g id="edge20" class="edge">
<title>Akustische Koordinatenübertragung&#45;&gt;Mikrofon</title>
<path fill="none" stroke="#000000" d="M213.5,-46.1176C213.5,-99.7303 213.5,-228 213.5,-228 213.5,-228 84.5,-228 84.5,-228 84.5,-228 84.5,-236.4182 84.5,-245.6256"/>
</g>
<!-- Lautsprecher -->
<g id="node20" class="node">
<title>Lautsprecher</title>
<polygon fill="none" stroke="#000000" points="400.5,-128 273.5,-128 273.5,-124 269.5,-124 269.5,-120 273.5,-120 273.5,-90 269.5,-90 269.5,-86 273.5,-86 273.5,-82 400.5,-82 400.5,-128"/>
<polyline fill="none" stroke="#000000" points="273.5,-124 277.5,-124 277.5,-120 273.5,-120 "/>
<polyline fill="none" stroke="#000000" points="273.5,-90 277.5,-90 277.5,-86 273.5,-86 "/>
<text text-anchor="middle" x="337" y="-101.2" font-family="Open Sans" font-size="16.00" fill="#000000">Lautsprecher</text>
</g>
<!-- Entwicklerboard&#45;&gt;Lautsprecher -->
<g id="edge18" class="edge">
<title>Entwicklerboard&#45;&gt;Lautsprecher</title>
<path fill="none" stroke="#000000" d="M337,-163.7214C337,-152.547 337,-139.1979 337,-128.053"/>
</g>
<!-- Bildkamera -->
<g id="node11" class="node">
<title>Bildkamera</title>
<polygon fill="none" stroke="#000000" points="225.5,-286 130.5,-286 130.5,-246 148.5,-246 148.5,-252 225.5,-252 225.5,-246 243.5,-269 225.5,-292 225.5,-286"/>
<text text-anchor="middle" x="187" y="-265.2" font-family="Open Sans" font-size="16.00" fill="#000000">Bildkamera</text>
</g>
<!-- Bildkamera&#45;&gt;Entwicklerboard -->
<g id="edge8" class="edge">
<title>Bildkamera&#45;&gt;Entwicklerboard</title>
<path fill="none" stroke="#000000" d="M228.5,-245.6807C228.5,-223.6642 228.5,-194 228.5,-194 228.5,-194 247.5426,-194 270.2301,-194"/>
</g>
<!-- Mikrofon&#45;&gt;Spracherkennung -->
<g id="edge21" class="edge">
<title>Mikrofon&#45;&gt;Spracherkennung</title>
<path fill="none" stroke="#000000" d="M57,-245.7214C57,-234.547 57,-221.1979 57,-210.053"/>
</g>
<!-- Wärmebildkamera -->
<g id="node13" class="node">
<title>Wärmebildkamera</title>
<polygon fill="none" stroke="#000000" points="410.5,-286 261.5,-286 261.5,-246 279.5,-246 279.5,-252 410.5,-252 410.5,-246 428.5,-269 410.5,-292 410.5,-286"/>
<text text-anchor="middle" x="345" y="-265.2" font-family="Open Sans" font-size="16.00" fill="#000000">Wärmebildkamera</text>
</g>
<!-- Wärmebildkamera&#45;&gt;Entwicklerboard -->
<g id="edge13" class="edge">
<title>Wärmebildkamera&#45;&gt;Entwicklerboard</title>
<path fill="none" stroke="#000000" d="M345,-245.7214C345,-234.547 345,-221.1979 345,-210.053"/>
</g>
<!-- Lithium&#45;Ionen&#45;Akku -->
<g id="node14" class="node">
<title>Lithium&#45;Ionen&#45;Akku</title>
<path fill="none" stroke="#000000" d="M1001.5,-631.6027C1001.5,-634.788 962.7293,-637.3755 915,-637.3755 867.2707,-637.3755 828.5,-634.788 828.5,-631.6027 828.5,-631.6027 828.5,-579.6473 828.5,-579.6473 828.5,-576.462 867.2707,-573.8745 915,-573.8745 962.7293,-573.8745 1001.5,-576.462 1001.5,-579.6473 1001.5,-579.6473 1001.5,-631.6027 1001.5,-631.6027"/>
<path fill="none" stroke="#000000" d="M1001.5,-631.6027C1001.5,-628.4173 962.7293,-625.8299 915,-625.8299 867.2707,-625.8299 828.5,-628.4173 828.5,-631.6027"/>
<text text-anchor="middle" x="915" y="-601.825" font-family="Open Sans" font-size="16.00" fill="#000000">Lithium&#45;Ionen&#45;Akku</text>
</g>
<!-- Lithium&#45;Ionen&#45;Akku&#45;&gt;Spannungswandler -->
<g id="edge14" class="edge">
<title>Lithium&#45;Ionen&#45;Akku&#45;&gt;Spannungswandler</title>
<path fill="none" stroke="#000000" d="M915,-573.9288C915,-562.1891 915,-549.1051 915,-538.2536"/>
</g>
<!-- Affenantrieb -->
<g id="node15" class="node">
<title>Affenantrieb</title>
<polygon fill="none" stroke="#000000" points="591.5,-532 482.5,-532 482.5,-498 591.5,-498 603.5,-515 591.5,-532"/>
<text text-anchor="middle" x="543" y="-511.2" font-family="Open Sans" font-size="16.00" fill="#000000">Affenantrieb</text>
</g>
<!-- Affenantrieb&#45;&gt;Zahnrad -->
<g id="edge3" class="edge">
<title>Affenantrieb&#45;&gt;Zahnrad</title>
<path fill="none" stroke="#000000" d="M482.2744,-515C412.0546,-515 306,-515 306,-515 306,-515 306,-480.5214 306,-456.2786"/>
</g>
<!-- Schrittmotor(en)&#45;&gt;Geschwindigkeitsregler -->
<g id="edge6" class="edge">
<title>Schrittmotor(en)&#45;&gt;Geschwindigkeitsregler</title>
<path fill="none" stroke="#000000" d="M674,-327.7214C674,-316.547 674,-303.1979 674,-292.053"/>
</g>
<!-- Softrobotics&#45;Greifer -->
<g id="node17" class="node">
<title>Softrobotics&#45;Greifer</title>
<polygon fill="none" stroke="#000000" points="784.5,-532 621.5,-532 621.5,-498 784.5,-498 796.5,-515 784.5,-532"/>
<text text-anchor="middle" x="709" y="-511.2" font-family="Open Sans" font-size="16.00" fill="#000000">Softrobotics&#45;Greifer</text>
</g>
<!-- Softrobotics&#45;Greifer&#45;&gt;Druckluft -->
<g id="edge9" class="edge">
<title>Softrobotics&#45;Greifer&#45;&gt;Druckluft</title>
<path fill="none" stroke="#000000" d="M627.5,-491.7214C627.5,-467.4786 627.5,-433 627.5,-433 627.5,-433 527.9151,-433 466.0635,-433"/>
</g>
<!-- Seiltrommel -->
<g id="node18" class="node">
<title>Seiltrommel</title>
<polygon fill="none" stroke="#000000" points="740.5,-450 633.5,-450 633.5,-416 740.5,-416 752.5,-433 740.5,-450"/>
<text text-anchor="middle" x="693" y="-429.2" font-family="Open Sans" font-size="16.00" fill="#000000">Seiltrommel</text>
</g>
<!-- Softrobotics&#45;Greifer&#45;&gt;Seiltrommel -->
<g id="edge11" class="edge">
<title>Softrobotics&#45;Greifer&#45;&gt;Seiltrommel</title>
<path fill="none" stroke="#000000" d="M693,-491.7214C693,-480.547 693,-467.1979 693,-456.053"/>
</g>
<!-- Seiltrommel&#45;&gt;Schrittmotor(en) -->
<g id="edge12" class="edge">
<title>Seiltrommel&#45;&gt;Schrittmotor(en)</title>
<path fill="none" stroke="#000000" d="M692.75,-409.7214C692.75,-398.547 692.75,-385.1979 692.75,-374.053"/>
</g>
<!-- Lautsprecher&#45;&gt;Akustische Koordinatenübertragung -->
<g id="edge19" class="edge">
<title>Lautsprecher&#45;&gt;Akustische Koordinatenübertragung</title>
<path fill="none" stroke="#000000" d="M337,-81.7214C337,-70.547 337,-57.1979 337,-46.053"/>
</g>
</g>
</svg>
