<?xml version="1.0" encoding="utf-8"?>
<!-- created with bpmn-js / http://bpmn.io -->
<!DOCTYPE svg PUBLIC "-//W3C//DTD SVG 1.1//EN" "http://www.w3.org/Graphics/SVG/1.1/DTD/svg11.dtd">
<svg xmlns="http://www.w3.org/2000/svg" xmlns:xlink="http://www.w3.org/1999/xlink" width="1456.3294677734375" height="258.221435546875" viewBox="305 -127 1456.3294677734375 258.221435546875" version="1.1"><defs><marker id="sequenceflow-end-white-black" viewBox="0 0 20 20" refX="11" refY="10" markerWidth="10" markerHeight="10" orient="auto"><path d="M 1 5 L 11 10 L 1 15 Z" style="fill: black; stroke-width: 1px; stroke-linecap: round; stroke-dasharray: 10000, 1; stroke: black;"></path></marker></defs><g class="djs-group"><g class="djs-element djs-shape selected" data-element-id="StartEvent_06ccrrb" style="display: block;" transform="translate(311 -78)"><g class="djs-visual"><circle cx="18" cy="18" r="18" style="stroke: black; stroke-width: 2px; fill: white;"/></g><rect x="0" y="0" width="36" height="36" class="djs-hit" style="fill: none; stroke-opacity: 0; stroke: white; stroke-width: 15px;"/><rect x="-6" y="-6" width="48" height="48" class="djs-outline" style="fill: none;"/></g></g><g class="djs-group"><g class="djs-element djs-shape selected" data-element-id="EndEvent_1lz2ii5" style="display: block;" transform="translate(1719.33 -78)"><g class="djs-visual"><circle cx="18" cy="18" r="18" style="stroke: black; stroke-width: 4px; fill: white;"/></g><rect x="0" y="0" width="36" height="36" class="djs-hit" style="fill: none; stroke-opacity: 0; stroke: white; stroke-width: 15px;"/><rect x="-6" y="-6" width="48" height="48" class="djs-outline" style="fill: none;"/></g></g><g class="djs-group"><g class="djs-element djs-shape selected" data-element-id="Task_1iy1dog" style="display: block;" transform="translate(386 -100)"><g class="djs-visual"><rect x="0" y="0" width="100" height="80" rx="10" ry="10" style="stroke: black; stroke-width: 2px; fill: white;"/><text class="djs-label" style="font-family: Arial, sans-serif; font-size: 12px; fill: black;"><tspan x="22.9921875" y="36.5">Abflugsort </tspan><tspan x="30.984375" y="50.5">wählen </tspan></text></g><rect x="0" y="0" width="100" height="80" class="djs-hit" style="fill: none; stroke-opacity: 0; stroke: white; stroke-width: 15px;"/><rect x="-6" y="-6" width="112" height="92" class="djs-outline" style="fill: none;"/></g></g><g class="djs-group"><g class="djs-element djs-shape selected" data-element-id="Task_04t0abl" style="display: block;" transform="translate(530 -100)"><g class="djs-visual"><rect x="0" y="0" width="100" height="80" rx="10" ry="10" style="stroke: black; stroke-width: 2px; fill: white;"/><text class="djs-label" style="font-family: Arial, sans-serif; font-size: 12px; fill: black;"><tspan x="14.6796875" y="43.54296875">Zielort wählen</tspan></text></g><rect x="0" y="0" width="100" height="80" class="djs-hit" style="fill: none; stroke-opacity: 0; stroke: white; stroke-width: 15px;"/><rect x="-6" y="-6" width="112" height="92" class="djs-outline" style="fill: none;"/></g></g><g class="djs-group"><g class="djs-element djs-shape selected" data-element-id="Task_1t1qmmh" style="display: block;" transform="translate(674 -100)"><g class="djs-visual"><rect x="0" y="0" width="100" height="80" rx="10" ry="10" style="stroke: black; stroke-width: 2px; fill: white;"/><text class="djs-label" style="font-family: Arial, sans-serif; font-size: 12px; fill: black;"><tspan x="13.3125" y="36.5">Abflugsdatum </tspan><tspan x="30.984375" y="50.5">wählen </tspan></text></g><rect x="0" y="0" width="100" height="80" class="djs-hit" style="fill: none; stroke-opacity: 0; stroke: white; stroke-width: 15px;"/><rect x="-6" y="-6" width="112" height="92" class="djs-outline" style="fill: none;"/></g></g><g class="djs-group"><g class="djs-element djs-shape selected" data-element-id="ExclusiveGateway_189hd9a" style="display: block;" transform="translate(818 -85)"><g class="djs-visual"><polygon points="25,0 50,25 25,50 0,25" style="stroke: black; stroke-width: 2px; fill: white;"/><path d="m 16,15 7.42857142857143,9.714285714285715 -7.42857142857143,9.714285714285715 3.428571428571429,0 5.714285714285715,-7.464228571428572 5.714285714285715,7.464228571428572 3.428571428571429,0 -7.42857142857143,-9.714285714285715 7.42857142857143,-9.714285714285715 -3.428571428571429,0 -5.714285714285715,7.464228571428572 -5.714285714285715,-7.464228571428572 -3.428571428571429,0 z" style="fill: black; stroke-width: 1px; stroke: black;"/></g><rect x="0" y="0" width="50" height="50" class="djs-hit" style="fill: none; stroke-opacity: 0; stroke: white; stroke-width: 15px;"/><rect x="-6" y="-6" width="62" height="62" class="djs-outline" style="fill: none;"/></g></g><g class="djs-group"><g class="djs-element djs-shape selected" data-element-id="ExclusiveGateway_0w0yw5n" style="display: block;" transform="translate(912 -85)"><g class="djs-visual"><polygon points="25,0 50,25 25,50 0,25" style="stroke: black; stroke-width: 2px; fill: white;"/><path d="m 16,15 7.42857142857143,9.714285714285715 -7.42857142857143,9.714285714285715 3.428571428571429,0 5.714285714285715,-7.464228571428572 5.714285714285715,7.464228571428572 3.428571428571429,0 -7.42857142857143,-9.714285714285715 7.42857142857143,-9.714285714285715 -3.428571428571429,0 -5.714285714285715,7.464228571428572 -5.714285714285715,-7.464228571428572 -3.428571428571429,0 z" style="fill: black; stroke-width: 1px; stroke: black;"/></g><rect x="0" y="0" width="50" height="50" class="djs-hit" style="fill: none; stroke-opacity: 0; stroke: white; stroke-width: 15px;"/><rect x="-6" y="-6" width="62" height="62" class="djs-outline" style="fill: none;"/></g></g><g class="djs-group"><g class="djs-element djs-shape selected" data-element-id="Task_1k2a5y9" style="display: block;" transform="translate(1006 -100)"><g class="djs-visual"><rect x="0" y="0" width="100" height="80" rx="10" ry="10" style="stroke: black; stroke-width: 2px; fill: white;"/><text class="djs-label" style="font-family: Arial, sans-serif; font-size: 12px; fill: black;"><tspan x="7.421875" y="43.54296875">Klasse auswälen</tspan></text></g><rect x="0" y="0" width="100" height="80" class="djs-hit" style="fill: none; stroke-opacity: 0; stroke: white; stroke-width: 15px;"/><rect x="-6" y="-6" width="112" height="92" class="djs-outline" style="fill: none;"/></g></g><g class="djs-group"><g class="djs-element djs-shape selected" data-element-id="Task_18m81i0" style="display: block;" transform="translate(1150 -100)"><g class="djs-visual"><rect x="0" y="0" width="100" height="80" rx="10" ry="10" style="stroke: black; stroke-width: 2px; fill: white;"/><text class="djs-label" style="font-family: Arial, sans-serif; font-size: 12px; fill: black;"><tspan x="7.1015625" y="43.54296875">Menü auswählen</tspan></text></g><rect x="0" y="0" width="100" height="80" class="djs-hit" style="fill: none; stroke-opacity: 0; stroke: white; stroke-width: 15px;"/><rect x="-6" y="-6" width="112" height="92" class="djs-outline" style="fill: none;"/></g></g><g class="djs-group"><g class="djs-element djs-shape selected" data-element-id="Task_02o3c99" style="display: block;" transform="translate(1294 -100)"><g class="djs-visual"><rect x="0" y="0" width="100" height="80" rx="10" ry="10" style="stroke: black; stroke-width: 2px; fill: white;"/><text class="djs-label" style="font-family: Arial, sans-serif; font-size: 12px; fill: black;"><tspan x="27.328125" y="36.5">Sitzplatz </tspan><tspan x="21.3125" y="50.5">auswählen </tspan></text></g><rect x="0" y="0" width="100" height="80" class="djs-hit" style="fill: none; stroke-opacity: 0; stroke: white; stroke-width: 15px;"/><rect x="-6" y="-6" width="112" height="92" class="djs-outline" style="fill: none;"/></g></g><g class="djs-group"><g class="djs-element djs-shape selected" data-element-id="Task_0v6s4ie" style="display: block;" transform="translate(1438 -100)"><g class="djs-visual"><rect x="0" y="0" width="100" height="80" rx="10" ry="10" style="stroke: black; stroke-width: 2px; fill: white;"/><text class="djs-label" style="font-family: Arial, sans-serif; font-size: 12px; fill: black;"><tspan x="21.6484375" y="36.5">Bezahlung </tspan><tspan x="23.3203125" y="50.5">ausführen </tspan></text></g><rect x="0" y="0" width="100" height="80" class="djs-hit" style="fill: none; stroke-opacity: 0; stroke: white; stroke-width: 15px;"/><rect x="-6" y="-6" width="112" height="92" class="djs-outline" style="fill: none;"/></g></g><g class="djs-group"><g class="djs-element djs-shape selected" data-element-id="Task_0dzmrfq" style="display: block;" transform="translate(1582 -100)"><g class="djs-visual"><rect x="0" y="0" width="100" height="80" rx="10" ry="10" style="stroke: black; stroke-width: 2px; fill: white;"/><text class="djs-label" style="font-family: Arial, sans-serif; font-size: 12px; fill: black;"><tspan x="14.6484375" y="29.5">Buchungsbe-</tspan><tspan x="25.6484375" y="43.5">stätigung </tspan><tspan x="18.328125" y="57.5">verschicken </tspan></text></g><rect x="0" y="0" width="100" height="80" class="djs-hit" style="fill: none; stroke-opacity: 0; stroke: white; stroke-width: 15px;"/><rect x="-6" y="-6" width="112" height="92" class="djs-outline" style="fill: none;"/></g></g><g class="djs-group"><g class="djs-element djs-shape selected" data-element-id="Task_1xrzmga" style="display: block;" transform="translate(793 45.2214)"><g class="djs-visual"><rect x="0" y="0" width="100" height="80" rx="10" ry="10" style="stroke: black; stroke-width: 2px; fill: white;"/><text class="djs-label" style="font-family: Arial, sans-serif; font-size: 12px; fill: black;"><tspan x="6.984375" y="36.5">Rückflugsdatum</tspan><tspan x="30.984375" y="50.5">wählen </tspan></text></g><rect x="0" y="0" width="100" height="80" class="djs-hit" style="fill: none; stroke-opacity: 0; stroke: white; stroke-width: 15px;"/><rect x="-6" y="-6" width="112" height="92" class="djs-outline" style="fill: none;"/></g></g><g class="djs-group"><g class="djs-element djs-connection selected" data-element-id="SequenceFlow_0e6eh63" style="display: block;"><g class="djs-visual"><path d="m  486,-60L530,-60 " style="fill: none; stroke-width: 2px; stroke: black; stroke-linejoin: round; marker-end: url('#sequenceflow-end-white-black');"/></g><polyline points="486,-60 530,-60 " class="djs-hit" style="fill: none; stroke-opacity: 0; stroke: white; stroke-width: 15px;"/><rect x="480" y="-66" width="56" height="12" class="djs-outline" style="fill: none;"/></g></g><g class="djs-group"><g class="djs-element djs-connection selected" data-element-id="SequenceFlow_0mj4okt" style="display: block;"><g class="djs-visual"><path d="m  630,-60L674,-60 " style="fill: none; stroke-width: 2px; stroke: black; stroke-linejoin: round; marker-end: url('#sequenceflow-end-white-black');"/></g><polyline points="630,-60 674,-60 " class="djs-hit" style="fill: none; stroke-opacity: 0; stroke: white; stroke-width: 15px;"/><rect x="624" y="-66" width="56" height="12" class="djs-outline" style="fill: none;"/></g></g><g class="djs-group"><g class="djs-element djs-connection selected" data-element-id="SequenceFlow_10mj58c" style="display: block;"><g class="djs-visual"><path d="m  347,-60L386,-60 " style="fill: none; stroke-width: 2px; stroke: black; stroke-linejoin: round; marker-end: url('#sequenceflow-end-white-black');"/></g><polyline points="347,-60 386,-60 " class="djs-hit" style="fill: none; stroke-opacity: 0; stroke: white; stroke-width: 15px;"/><rect x="341" y="-66" width="51" height="12" class="djs-outline" style="fill: none;"/></g></g><g class="djs-group"><g class="djs-element djs-shape selected" data-element-id="StartEvent_06ccrrb_label" style="display: none;" transform="translate(329 -42)"><g class="djs-visual"><text class="djs-label" transform="translate(0,0)" style="font-family: Arial, sans-serif; font-size: 11px;"><tspan x="45" y="12.28125"/></text></g><rect x="0" y="0" width="0" height="0" class="djs-hit" style="fill: none; stroke-opacity: 0; stroke: white; stroke-width: 15px;"/><rect x="-6" y="-6" width="12" height="12" class="djs-outline" style="fill: none;"/></g></g><g class="djs-group"><g class="djs-element djs-connection selected" data-element-id="SequenceFlow_14k1ly6" style="display: block;"><g class="djs-visual"><path d="m  774,-60L818,-60 " style="fill: none; stroke-width: 2px; stroke: black; stroke-linejoin: round; marker-end: url('#sequenceflow-end-white-black');"/></g><polyline points="774,-60 818,-60 " class="djs-hit" style="fill: none; stroke-opacity: 0; stroke: white; stroke-width: 15px;"/><rect x="768" y="-66" width="56" height="12" class="djs-outline" style="fill: none;"/></g></g><g class="djs-group"><g class="djs-element djs-connection selected" data-element-id="SequenceFlow_11lp2cd" style="display: block;"><g class="djs-visual"><path d="m  843,-35L843,5 L843,5 L843,45 " style="fill: none; stroke-width: 2px; stroke: black; stroke-linejoin: round; marker-end: url('#sequenceflow-end-white-black');"/></g><polyline points="843,-35 843,5 843,5 843,45 " class="djs-hit" style="fill: none; stroke-opacity: 0; stroke: white; stroke-width: 15px;"/><rect x="837" y="-41" width="12" height="92" class="djs-outline" style="fill: none;"/></g></g><g class="djs-group"><g class="djs-element djs-connection selected" data-element-id="SequenceFlow_0ynlcxx" style="display: block;"><g class="djs-visual"><path d="m  868,-60L912,-60 " style="fill: none; stroke-width: 2px; stroke: black; stroke-linejoin: round; marker-end: url('#sequenceflow-end-white-black');"/></g><polyline points="868,-60 912,-60 " class="djs-hit" style="fill: none; stroke-opacity: 0; stroke: white; stroke-width: 15px;"/><rect x="862" y="-66" width="56" height="12" class="djs-outline" style="fill: none;"/></g></g><g class="djs-group"><g class="djs-element djs-connection selected" data-element-id="SequenceFlow_1nra8f4" style="display: block;"><g class="djs-visual"><path d="m  893,85L937,85 L937,-35 " style="fill: none; stroke-width: 2px; stroke: black; stroke-linejoin: round; marker-end: url('#sequenceflow-end-white-black');"/></g><polyline points="893,85 937,85 937,-35 " class="djs-hit" style="fill: none; stroke-opacity: 0; stroke: white; stroke-width: 15px;"/><rect x="887" y="-41" width="56" height="132" class="djs-outline" style="fill: none;"/></g></g><g class="djs-group"><g class="djs-element djs-connection selected" data-element-id="SequenceFlow_1lwzwwt" style="display: block;"><g class="djs-visual"><path d="m  962,-60L1006,-60 " style="fill: none; stroke-width: 2px; stroke: black; stroke-linejoin: round; marker-end: url('#sequenceflow-end-white-black');"/></g><polyline points="962,-60 1006,-60 " class="djs-hit" style="fill: none; stroke-opacity: 0; stroke: white; stroke-width: 15px;"/><rect x="956" y="-66" width="56" height="12" class="djs-outline" style="fill: none;"/></g></g><g class="djs-group"><g class="djs-element djs-connection selected" data-element-id="SequenceFlow_0scwg67" style="display: block;"><g class="djs-visual"><path d="m  1106,-60L1150,-60 " style="fill: none; stroke-width: 2px; stroke: black; stroke-linejoin: round; marker-end: url('#sequenceflow-end-white-black');"/></g><polyline points="1106,-60 1150,-60 " class="djs-hit" style="fill: none; stroke-opacity: 0; stroke: white; stroke-width: 15px;"/><rect x="1100" y="-66" width="56" height="12" class="djs-outline" style="fill: none;"/></g></g><g class="djs-group"><g class="djs-element djs-connection selected" data-element-id="SequenceFlow_1gdcr3u" style="display: block;"><g class="djs-visual"><path d="m  1250,-60L1294,-60 " style="fill: none; stroke-width: 2px; stroke: black; stroke-linejoin: round; marker-end: url('#sequenceflow-end-white-black');"/></g><polyline points="1250,-60 1294,-60 " class="djs-hit" style="fill: none; stroke-opacity: 0; stroke: white; stroke-width: 15px;"/><rect x="1244" y="-66" width="56" height="12" class="djs-outline" style="fill: none;"/></g></g><g class="djs-group"><g class="djs-element djs-connection selected" data-element-id="SequenceFlow_1615fxi" style="display: block;"><g class="djs-visual"><path d="m  1394,-60L1438,-60 " style="fill: none; stroke-width: 2px; stroke: black; stroke-linejoin: round; marker-end: url('#sequenceflow-end-white-black');"/></g><polyline points="1394,-60 1438,-60 " class="djs-hit" style="fill: none; stroke-opacity: 0; stroke: white; stroke-width: 15px;"/><rect x="1388" y="-66" width="56" height="12" class="djs-outline" style="fill: none;"/></g></g><g class="djs-group"><g class="djs-element djs-connection selected" data-element-id="SequenceFlow_15nsg2f" style="display: block;"><g class="djs-visual"><path d="m  1538,-60L1582,-60 " style="fill: none; stroke-width: 2px; stroke: black; stroke-linejoin: round; marker-end: url('#sequenceflow-end-white-black');"/></g><polyline points="1538,-60 1582,-60 " class="djs-hit" style="fill: none; stroke-opacity: 0; stroke: white; stroke-width: 15px;"/><rect x="1532" y="-66" width="56" height="12" class="djs-outline" style="fill: none;"/></g></g><g class="djs-group"><g class="djs-element djs-shape selected" data-element-id="EndEvent_1lz2ii5_label" style="display: none;" transform="translate(1738 -42)"><g class="djs-visual"><text class="djs-label" transform="translate(0,0)" style="font-family: Arial, sans-serif; font-size: 11px;"><tspan x="45" y="11.96875"/></text></g><rect x="0" y="0" width="0" height="0" class="djs-hit" style="fill: none; stroke-opacity: 0; stroke: white; stroke-width: 15px;"/><rect x="-6" y="-6" width="12" height="12" class="djs-outline" style="fill: none;"/></g></g><g class="djs-group"><g class="djs-element djs-connection selected" data-element-id="SequenceFlow_0yh1z9d" style="display: block;"><g class="djs-visual"><path d="m  1682,-60L1719,-60 " style="fill: none; stroke-width: 2px; stroke: black; stroke-linejoin: round; marker-end: url('#sequenceflow-end-white-black');"/></g><polyline points="1682,-60 1719,-60 " class="djs-hit" style="fill: none; stroke-opacity: 0; stroke: white; stroke-width: 15px;"/><rect x="1676" y="-66" width="49" height="12" class="djs-outline" style="fill: none;"/></g></g><g class="djs-group"><g class="djs-element djs-shape selected" data-element-id="SequenceFlow_10mj58c_label" style="display: none;" transform="translate(367 -75)"><g class="djs-visual"><text class="djs-label" transform="translate(0,0)" style="font-family: Arial, sans-serif; font-size: 11px;"><tspan x="45" y="12.765625"/></text></g><rect x="0" y="0" width="0" height="0" class="djs-hit" style="fill: none; stroke-opacity: 0; stroke: white; stroke-width: 15px;"/><rect x="-6" y="-6" width="12" height="12" class="djs-outline" style="fill: none;"/></g></g><g class="djs-group"><g class="djs-element djs-shape selected" data-element-id="SequenceFlow_0e6eh63_label" style="display: none;" transform="translate(508 -75)"><g class="djs-visual"><text class="djs-label" transform="translate(0,0)" style="font-family: Arial, sans-serif; font-size: 11px;"><tspan x="45" y="12.765625"/></text></g><rect x="0" y="0" width="0" height="0" class="djs-hit" style="fill: none; stroke-opacity: 0; stroke: white; stroke-width: 15px;"/><rect x="-6" y="-6" width="12" height="12" class="djs-outline" style="fill: none;"/></g></g><g class="djs-group"><g class="djs-element djs-shape selected" data-element-id="SequenceFlow_0mj4okt_label" style="display: none;" transform="translate(652 -75)"><g class="djs-visual"><text class="djs-label" transform="translate(0,0)" style="font-family: Arial, sans-serif; font-size: 11px;"><tspan x="45" y="12.765625"/></text></g><rect x="0" y="0" width="0" height="0" class="djs-hit" style="fill: none; stroke-opacity: 0; stroke: white; stroke-width: 15px;"/><rect x="-6" y="-6" width="12" height="12" class="djs-outline" style="fill: none;"/></g></g><g class="djs-group"><g class="djs-element djs-shape selected" data-element-id="SequenceFlow_14k1ly6_label" style="display: none;" transform="translate(796 -75)"><g class="djs-visual"><text class="djs-label" transform="translate(0,0)" style="font-family: Arial, sans-serif; font-size: 11px;"><tspan x="45" y="12.765625"/></text></g><rect x="0" y="0" width="0" height="0" class="djs-hit" style="fill: none; stroke-opacity: 0; stroke: white; stroke-width: 15px;"/><rect x="-6" y="-6" width="12" height="12" class="djs-outline" style="fill: none;"/></g></g><g class="djs-group"><g class="djs-element djs-shape selected" data-element-id="ExclusiveGateway_1bw8tex_label" style="display: block;" transform="translate(800 -121)"><g class="djs-visual"><text class="djs-label" transform="translate(-5.265625,0)" style="font-family: Arial, sans-serif; font-size: 11px;"><tspan x="5.265625" y="12">Einfach oder mit </tspan><tspan x="17.4921875" y="24">Rückreise? </tspan></text></g><rect x="0" y="0" width="86" height="25" class="djs-hit" style="fill: none; stroke-opacity: 0; stroke: white; stroke-width: 15px;"/><rect x="-6" y="-6" width="98" height="37" class="djs-outline" style="fill: none;"/></g></g><g class="djs-group"><g class="djs-element djs-shape selected" data-element-id="ExclusiveGateway_0w0yw5n_label" style="display: none;" transform="translate(938 -35)"><g class="djs-visual"><text class="djs-label" transform="translate(0,0)" style="font-family: Arial, sans-serif; font-size: 11px;"><tspan x="45" y="12.765625"/></text></g><rect x="0" y="0" width="0" height="0" class="djs-hit" style="fill: none; stroke-opacity: 0; stroke: white; stroke-width: 15px;"/><rect x="-6" y="-6" width="12" height="12" class="djs-outline" style="fill: none;"/></g></g><g class="djs-group"><g class="djs-element djs-shape selected" data-element-id="SequenceFlow_1lwzwwt_label" style="display: none;" transform="translate(984 -75)"><g class="djs-visual"><text class="djs-label" transform="translate(0,0)" style="font-family: Arial, sans-serif; font-size: 11px;"><tspan x="45" y="12.765625"/></text></g><rect x="0" y="0" width="0" height="0" class="djs-hit" style="fill: none; stroke-opacity: 0; stroke: white; stroke-width: 15px;"/><rect x="-6" y="-6" width="12" height="12" class="djs-outline" style="fill: none;"/></g></g><g class="djs-group"><g class="djs-element djs-shape selected" data-element-id="SequenceFlow_0scwg67_label" style="display: none;" transform="translate(1128 -75)"><g class="djs-visual"><text class="djs-label" transform="translate(0,0)" style="font-family: Arial, sans-serif; font-size: 11px;"><tspan x="45" y="12.765625"/></text></g><rect x="0" y="0" width="0" height="0" class="djs-hit" style="fill: none; stroke-opacity: 0; stroke: white; stroke-width: 15px;"/><rect x="-6" y="-6" width="12" height="12" class="djs-outline" style="fill: none;"/></g></g><g class="djs-group"><g class="djs-element djs-shape selected" data-element-id="SequenceFlow_1gdcr3u_label" style="display: none;" transform="translate(1272 -75)"><g class="djs-visual"><text class="djs-label" transform="translate(0,0)" style="font-family: Arial, sans-serif; font-size: 11px;"><tspan x="45" y="12.765625"/></text></g><rect x="0" y="0" width="0" height="0" class="djs-hit" style="fill: none; stroke-opacity: 0; stroke: white; stroke-width: 15px;"/><rect x="-6" y="-6" width="12" height="12" class="djs-outline" style="fill: none;"/></g></g><g class="djs-group"><g class="djs-element djs-shape selected" data-element-id="SequenceFlow_1615fxi_label" style="display: none;" transform="translate(1416 -75)"><g class="djs-visual"><text class="djs-label" transform="translate(0,0)" style="font-family: Arial, sans-serif; font-size: 11px;"><tspan x="45" y="12.765625"/></text></g><rect x="0" y="0" width="0" height="0" class="djs-hit" style="fill: none; stroke-opacity: 0; stroke: white; stroke-width: 15px;"/><rect x="-6" y="-6" width="12" height="12" class="djs-outline" style="fill: none;"/></g></g><g class="djs-group"><g class="djs-element djs-shape selected" data-element-id="SequenceFlow_15nsg2f_label" style="display: none;" transform="translate(1560 -75)"><g class="djs-visual"><text class="djs-label" transform="translate(0,0)" style="font-family: Arial, sans-serif; font-size: 11px;"><tspan x="45" y="12.765625"/></text></g><rect x="0" y="0" width="0" height="0" class="djs-hit" style="fill: none; stroke-opacity: 0; stroke: white; stroke-width: 15px;"/><rect x="-6" y="-6" width="12" height="12" class="djs-outline" style="fill: none;"/></g></g><g class="djs-group"><g class="djs-element djs-shape selected" data-element-id="SequenceFlow_0yh1z9d_label" style="display: none;" transform="translate(1701 -75)"><g class="djs-visual"><text class="djs-label" transform="translate(0,0)" style="font-family: Arial, sans-serif; font-size: 11px;"><tspan x="45" y="12.765625"/></text></g><rect x="0" y="0" width="0" height="0" class="djs-hit" style="fill: none; stroke-opacity: 0; stroke: white; stroke-width: 15px;"/><rect x="-6" y="-6" width="12" height="12" class="djs-outline" style="fill: none;"/></g></g><g class="djs-group"><g class="djs-element djs-shape selected" data-element-id="SequenceFlow_0ynlcxx_label" style="display: block;" transform="translate(869 -83)"><g class="djs-visual"><text class="djs-label" transform="translate(-26.96875,0)" style="font-family: Arial, sans-serif; font-size: 11px;"><tspan x="26.9765625" y="12.703125">einfach</tspan></text></g><rect x="0" y="0" width="37" height="13" class="djs-hit" style="fill: none; stroke-opacity: 0; stroke: white; stroke-width: 15px;"/><rect x="-6" y="-6" width="49" height="25" class="djs-outline" style="fill: none;"/></g></g><g class="djs-group"><g class="djs-element djs-shape selected" data-element-id="SequenceFlow_11lp2cd_label" style="display: block;" transform="translate(767 14.2885)"><g class="djs-visual"><text class="djs-label" transform="translate(-11.953125,0)" style="font-family: Arial, sans-serif; font-size: 11px;"><tspan x="11.9609375" y="12.46875">mit Rückreise</tspan></text></g><rect x="0" y="0" width="67" height="13" class="djs-hit" style="fill: none; stroke-opacity: 0; stroke: white; stroke-width: 15px;"/><rect x="-6" y="-6" width="79" height="25" class="djs-outline" style="fill: none;"/></g></g><g class="djs-group"><g class="djs-element djs-shape selected" data-element-id="SequenceFlow_1nra8f4_label" style="display: none;" transform="translate(915 70)"><g class="djs-visual"><text class="djs-label" transform="translate(0,0)" style="font-family: Arial, sans-serif; font-size: 11px;"><tspan x="45" y="12.46875"/></text></g><rect x="0" y="0" width="0" height="0" class="djs-hit" style="fill: none; stroke-opacity: 0; stroke: white; stroke-width: 15px;"/><rect x="-6" y="-6" width="12" height="12" class="djs-outline" style="fill: none;"/></g></g><g class="djs-drag-group" style="pointer-events: none;" transform="translate(18 0)"/><g class="djs-drag-group" style="pointer-events: none;" transform="translate(-28 0)"/><g class="djs-drag-group" style="pointer-events: none;" transform="translate(-22 0)"/><g class="djs-drag-group" style="pointer-events: none;" transform="translate(-111 -106)"/><g class="djs-drag-group" style="pointer-events: none;" transform="translate(104 106)"/><g class="djs-drag-group" style="pointer-events: none;" transform="translate(0 24)"/><g class="djs-drag-group" style="pointer-events: none;" transform="translate(64 71)"/><g class="djs-drag-group" style="pointer-events: none;" transform="translate(-52 -3)"/><g class="djs-drag-group" style="pointer-events: none;" transform="translate(-12 -3)"/><g class="djs-drag-group" style="pointer-events: none;" transform="translate(15 0)"/><g class="djs-drag-group" style="pointer-events: none;" transform="translate(45 0)"/><g class="djs-drag-group" style="pointer-events: none;" transform="translate(-21 0)"/><g class="djs-drag-group" style="pointer-events: none;" transform="translate(-45 -4)"/><g class="djs-drag-group" style="pointer-events: none;" transform="translate(0 -86)"/><g class="djs-drag-group" style="pointer-events: none;" transform="translate(0 -42)"/><g class="djs-drag-group" style="pointer-events: none;" transform="translate(0 26)"/><g class="djs-drag-group" style="pointer-events: none;" transform="translate(-3 -4)"/><g class="djs-drag-group" style="pointer-events: none;" transform="translate(0 -44)"/><g class="djs-drag-group" style="pointer-events: none;" transform="translate(1 0)"/><g class="djs-drag-group" style="pointer-events: none;" transform="translate(0 0)"/><g class="djs-drag-group" style="pointer-events: none;" transform="translate(4 1)"/><g class="djs-drag-group" style="pointer-events: none;" transform="translate(-2 -8)"/><g class="djs-drag-group" style="pointer-events: none;" transform="translate(33 -3)"/><g class="djs-drag-group" style="pointer-events: none;" transform="translate(-42 39)"/></svg>